<svg width="437" height="438" viewBox="0 0 437 438" fill="none" xmlns="http://www.w3.org/2000/svg">
<path d="M235.15 278.855L232.989 278.853C227.405 278.89 226.687 279.366 226 285C226.902 285.902 227.439 286.439 228.083 286.761C229.031 287.233 230.21 287.241 233.124 287.26L235.28 287.243C237.667 287.249 240.054 287.252 242.441 287.242C244.15 287.234 245.86 287.23 247.569 287.229C251.123 287.229 254.677 287.227 258.231 287.216C262.866 287.199 267.501 287.185 272.136 287.185C275.747 287.186 279.358 287.184 282.969 287.178L288.129 287.168C290.614 287.167 293.098 287.165 295.583 287.155L297.85 287.145C300.243 287.147 302.607 287.106 305 287C305.469 286.531 305.785 286.215 306.018 285.846C306.503 285.076 306.625 284.078 307 281C306.098 280.098 305.561 279.561 304.917 279.239C303.969 278.767 302.79 278.759 299.876 278.74L297.72 278.757C295.333 278.751 292.946 278.748 290.559 278.758C288.85 278.766 287.14 278.77 285.431 278.771C281.877 278.771 278.323 278.773 274.769 278.784C270.134 278.801 265.499 278.815 260.864 278.815C257.253 278.814 253.642 278.816 250.031 278.822C248.311 278.825 246.591 278.829 244.871 278.832C242.386 278.833 239.902 278.835 237.417 278.845L235.15 278.855Z" fill="#4DBFC3"/>
<path d="M214.563 279.938L217 280C217.301 281.142 217.457 281.735 217.579 282.335C217.712 282.982 217.805 283.637 218 285L216 287L215.998 287C214.637 286.805 213.982 286.712 213.335 286.579C212.735 286.457 212.142 286.301 211 286C210.957 284.334 210.959 282.666 211 281C211.372 280.628 211.606 280.394 211.884 280.244C212.355 279.991 212.953 279.977 214.563 279.938Z" fill="#4DBFC3"/>
<path d="M316 280C317.666 279.957 319.334 279.959 321 280C321.372 280.372 321.606 280.606 321.756 280.884C322.009 281.355 322.023 281.953 322.062 283.562L322 286C320.344 286.382 318.675 286.714 317 287C316.664 286.664 316.441 286.441 316.29 286.176C315.993 285.654 315.979 284.97 315.938 282.938L316 280Z" fill="#4DBFC3"/>
<path d="M289.075 232.861L286.304 232.871C281.733 232.875 280.714 233.289 280 238C281.158 239.158 281.646 239.646 282.234 239.899C282.662 240.083 283.143 240.143 283.973 240.247L286.418 240.243L289.189 240.252L292.188 240.23C294.268 240.23 296.349 240.228 298.43 240.225C301.722 240.206 305.014 240.188 308.306 240.185C310.451 240.185 312.596 240.183 314.741 240.178L317.812 240.168L320.811 240.165L323.582 240.145L323.911 240.144C326.335 240.135 327.742 240.129 330 239V234C328.943 233.471 328.444 233.222 327.917 233.086C327.446 232.965 326.953 232.933 326.02 232.873L323.566 232.871L320.786 232.861L317.777 232.867C315.692 232.865 313.607 232.864 311.521 232.863C308.221 232.87 304.92 232.875 301.619 232.87C299.468 232.865 297.316 232.864 295.165 232.864L292.09 232.867L289.075 232.861Z" fill="#4DBFC3"/>
<path fill-rule="evenodd" clip-rule="evenodd" d="M155.563 151.875C151.263 151.017 147.14 150.13 143.043 148.543L142.946 148.505C130.622 143.664 109.518 135.375 98.1875 144.188C96.5696 146.268 95.5481 147.581 94.8996 149.058C93.7886 151.589 93.7725 154.6 93.729 162.77L93.7412 166.222C93.7301 170.08 93.7205 173.939 93.7274 177.798C93.734 181.254 93.7336 184.71 93.7305 188.166C93.7253 193.956 93.7265 199.746 93.7356 205.537C93.7466 212.275 93.7501 219.014 93.7393 225.752C93.7297 231.59 93.7249 237.427 93.7286 243.265L93.7299 244.693C93.7328 247.691 93.7357 250.688 93.7314 253.685C93.725 257.002 93.7233 260.318 93.7306 263.634L93.7412 267.296L93.729 270.772L93.746 273.941C93.7502 278.97 94.9976 280.933 98.4912 284.653C101.96 287.446 104.982 287.587 109.337 287.618L112.141 287.559C114.117 287.554 116.094 287.547 118.07 287.537C121.174 287.487 124.276 287.437 127.38 287.426C129.414 287.422 131.449 287.413 133.483 287.398L136.391 287.371L139.219 287.355L141.829 287.306C142.001 287.304 142.165 287.302 142.322 287.3C145.142 287.267 145.74 287.26 148 285C147.805 283.637 147.712 282.982 147.579 282.335C147.457 281.735 147.301 281.142 147 280H137C137 278.988 137 278.488 136.838 278.048C136.68 277.618 136.368 277.245 135.75 276.507L134 274.77L132.071 272.847L130 270.812L129.428 270.239C126.157 266.958 122.93 263.721 119.258 260.875C117.919 259.894 116.602 258.882 115.32 257.828C114.018 254.611 113.356 252.976 113.059 251.277C112.752 249.524 112.834 247.702 113 244H115C115.199 241.216 115.404 238.433 115.613 235.65L115.875 232.188L115.999 230.425L116 230.413C116.329 225.699 116.659 220.987 117.459 216.325C118.985 208.609 119.765 200.899 120.433 193.071C120.563 191.546 120.694 190.02 120.828 188.495C121.141 184.948 121.451 181.402 121.756 177.855L122 175L124.423 175.8L127.641 176.867C130.811 177.917 133.965 178.987 137.102 180.133C137.391 180.241 137.681 180.35 137.97 180.459C141.002 181.597 144.021 182.731 147.148 183.59C153.022 184.994 158.676 186.669 164.285 188.915C169.299 190.975 174.334 192.846 179.484 194.534L182.062 195.375C182.705 195.591 183.346 195.807 183.988 196.023C187.822 197.315 191.654 198.607 195.539 199.742C199.287 200.811 203.004 201.91 206.645 203.309C211.046 205.527 212.524 207.423 214.09 212.027L215 215C221.016 227.497 221.706 238.618 221.797 252.461C221.785 254.178 221.78 254.94 221.817 255.7C221.846 256.306 221.901 256.911 222 257.997L222 258L222.003 258.003C223.12 259.12 223.613 259.612 224.207 259.869C224.675 260.071 225.206 260.127 226.155 260.227L228.789 260.195L231.641 260.176L234.625 260.125C237.452 260.099 240.278 260.073 243.104 260.032L245 260V268C240.832 267.918 236.665 267.849 232.496 267.805C230.789 267.788 229.082 267.77 227.375 267.75C224.869 267.699 222.363 267.649 219.857 267.627L217.461 267.609C212.75 267.481 209.835 267.541 205.62 269.86C201.902 272.897 199.441 275.504 198.582 280.363C198.281 285.723 199.095 289.237 202.32 293.527C207.154 297.765 211.734 298.354 217.914 298.418L221.051 298.404C224.555 298.426 228.059 298.442 231.563 298.439C234.07 298.436 236.577 298.436 239.084 298.44C244.989 298.454 250.893 298.461 256.797 298.45C262.922 298.438 269.046 298.44 275.171 298.467C280.477 298.49 285.783 298.502 291.089 298.5C293.622 298.498 296.155 298.496 298.688 298.496C302.327 298.514 305.966 298.531 309.606 298.518L312.949 298.502C313.535 298.507 314.118 298.518 314.698 298.529C319.235 298.614 323.555 298.695 327.542 296.133C331.159 292.994 333.738 290.396 334.277 285.461C334.362 278.954 333.444 275.925 329 271C324.957 268.476 321.751 267.659 316.984 267.66L314.758 267.707C312.369 267.72 309.982 267.737 307.594 267.774C305.937 267.8 304.281 267.82 302.624 267.835C298.788 267.864 294.953 267.898 291.118 267.952L288 268V260C293.655 260.021 299.31 260.038 304.965 260.049C307.268 260.053 309.572 260.057 311.875 260.062C315.278 260.075 318.681 260.088 322.085 260.093L325.305 260.098L328.455 260.113L331.367 260.114C335.281 260.124 336.968 259.816 340.09 257.347C340.822 256.448 341.333 255.819 341.693 255.113C342.528 253.473 342.544 251.416 342.596 244.584C342.576 242.57 342.563 240.561 342.597 238.548L342.635 236.553L342.629 232.691C342.632 228.555 342.386 226.589 340.106 223.112C336.328 220.543 334.049 220.432 329.573 220.434L326.668 220.512C323.577 220.534 320.487 220.562 317.397 220.623C315.248 220.666 313.1 220.7 310.951 220.725C305.192 220.78 299.433 220.856 293.675 220.966L292 221L292.148 218.664L292.375 215.625L292.375 215.624C292.46 214.074 292.5 213.336 292.586 212.602C292.664 211.936 292.779 211.274 292.998 210.014L292.999 210.008L293 210.002L293 210.001L295 208C295.066 206.622 295.097 205.968 295.094 205.313C295.091 204.721 295.059 204.129 295 203.002L295 203L292.688 202.375C291.512 202.211 290.851 202.119 290.228 202.234C289.427 202.382 288.688 202.874 287 204C284.883 206.817 284.039 208.582 283.707 212.113L283.812 215.312L283.895 218.551L284 221H276L276.141 218.734L276.25 215.75C276.409 212.406 276.329 210.574 274.656 207.656C273.41 206.879 272.624 206.389 271.771 206.085C270.313 205.564 268.661 205.587 264.184 205.648L261.25 205.75C258.454 205.801 255.659 205.853 252.864 205.937L251 206C251 205.493 251 205.1 250.959 204.711C250.815 203.359 250.17 202.061 247.285 196.248L245.75 193.188C243.897 189.421 242.022 185.679 240 182C235.934 175.761 230.236 173.127 223.255 171.125L221.188 170.562C218.909 169.918 216.63 169.275 214.347 168.646C212.792 168.218 211.238 167.788 209.685 167.354C206.634 166.501 203.582 165.651 200.529 164.805L193.428 162.842L193.425 162.841C187.723 161.266 182.033 159.695 176.434 157.781C169.506 155.372 162.735 153.385 155.563 151.875ZM224.836 274.389L221.602 274.401L221.477 274.399C214.023 274.288 207.211 274.188 205.375 283L205.375 283.001C205.679 284.46 205.835 285.209 206.131 285.899C206.443 286.627 206.91 287.288 207.871 288.648C211.716 291.538 213.926 291.603 218.622 291.667L221.694 291.631C225.117 291.654 228.539 291.668 231.963 291.651C234.412 291.636 236.862 291.629 239.311 291.63C244.414 291.638 249.518 291.64 254.621 291.618C261.264 291.583 267.906 291.559 274.549 291.576C279.729 291.591 284.91 291.596 290.091 291.585C292.562 291.578 295.033 291.572 297.504 291.566C301.062 291.575 304.619 291.582 308.178 291.56L311.436 291.533L311.977 291.537C315.351 291.56 318.663 291.583 322 291C325.143 288.774 325.801 287.683 326.875 284C327.007 280.828 326.889 279.518 325 277C322.881 275.709 321.276 275.033 318.804 274.74L316.377 274.726L313.577 274.696L310.528 274.694C307.138 274.667 303.748 274.645 300.358 274.636C297.931 274.631 295.503 274.624 293.075 274.616C288.018 274.596 282.961 274.581 277.904 274.577C271.321 274.573 264.738 274.558 258.155 274.513C253.023 274.477 247.891 274.455 242.759 274.448C240.309 274.448 237.86 274.446 235.41 274.441C231.885 274.411 228.361 274.382 224.836 274.389ZM123 163C142.463 164.08 145.663 164.257 147.768 165.866C148.183 166.183 148.555 166.555 149 167C151.811 167.548 154.611 168.044 157.438 168.5L159.923 168.91C164.859 169.707 169.767 170.381 174.762 170.691C175.693 170.82 176.238 170.895 176.774 171.005C177.527 171.159 178.265 171.383 180.038 171.92C184.44 173.196 188.895 173.87 193.418 174.555L193.625 174.586C195.484 174.88 197.344 175.174 199.203 175.469C202.105 175.925 205.008 176.376 207.912 176.817C210.735 177.248 213.555 177.697 216.375 178.148L218.983 178.531C225.223 179.549 230.711 180.982 234.713 186.258L235.871 188.695L237.17 191.363L238.438 194.125L239.787 196.91C242.196 201.949 242.799 203.211 242.95 204.524C243 204.963 243 205.407 243 206L239.875 206.188C235.472 207.111 232.797 208.542 230 212C228.422 214.918 227.151 217.891 226 221C223.67 217.506 222.371 213.799 221.007 209.908C220.812 209.351 220.615 208.791 220.414 208.227C217.405 201.36 213.599 198.898 207 196C203.72 194.772 200.399 193.704 197.059 192.652L194.251 191.749C191.315 190.806 188.377 189.871 185.438 188.938C182.495 187.999 179.554 187.059 176.613 186.115C174.791 185.53 172.968 184.949 171.144 184.372C166.293 182.819 161.656 181.064 157 179C155.136 178.384 153.26 177.8 151.375 177.25C142.919 174.712 134.554 171.893 126.189 169.074C125.126 168.716 124.063 168.358 123 168V163ZM335 228H276V252H335V228ZM101 168L115 169C115.169 178.896 114.675 188.132 113.188 197.938C112.815 200.535 112.446 203.132 112.086 205.73L111.807 207.746C110.589 216.752 109.818 225.806 109.047 234.859L108.952 235.969L108.613 239.859L108.325 243.312C108.148 244.78 108.067 245.447 107.867 246.075C107.701 246.597 107.454 247.093 107 248C106.165 248 105.678 248 105.242 247.852C104.634 247.645 104.124 247.15 102.903 245.966C100.606 242.386 100.459 239.659 100.546 235.548L100.544 233.329C100.547 230.92 100.578 228.513 100.609 226.105C100.617 224.431 100.623 222.757 100.627 221.082C100.642 216.684 100.681 212.287 100.725 207.89C100.763 203.748 100.782 199.607 100.8 195.465L100.805 194.416C100.848 185.61 100.918 176.805 101 168ZM269 213H260L259.852 215.887L259.625 219.688C259.424 223.269 259.2 226.389 258.082 229.801C255.081 235.901 250.027 238.174 244.07 240.73L241 242C237.75 243.37 234.498 244.736 231.238 246.082L229 247V252H269V213ZM246.25 212.812L250.078 212.895L253 213C253.61 222.134 253.787 224.791 252.797 226.899C252.39 227.764 251.788 228.536 250.937 229.625C247.764 232.191 244.792 233.656 241 235C239.228 235.726 237.457 236.456 235.687 237.188C232.699 238.41 231.725 238.808 230.717 238.937C230.23 239 229.735 239 229 239C228.659 233.434 229.663 230.019 232 225C232.721 222.68 233.408 220.356 234.059 218.016C236.614 212.545 240.668 212.657 246.197 212.811L246.25 212.812ZM118.438 269.312C112.796 263.647 107.164 258.098 101 253C100.938 255.795 100.889 258.589 100.854 261.385L100.812 264.812L100.736 268.205L100.707 271.457C100.705 271.603 100.702 271.747 100.7 271.888C100.652 274.642 100.621 276.409 102.172 278.828C103.013 279.367 103.467 279.659 103.96 279.849C104.539 280.072 105.171 280.157 106.544 280.341L109.543 280.293L112.795 280.264L116.188 280.188C120.126 280.14 124.063 280.087 128 280C128 279.695 128 279.483 127.951 279.283C127.839 278.827 127.474 278.434 126.275 277.146L121.232 272.096L118.438 269.312ZM102.5 148.5C106.046 146.373 108.967 146.347 113 147C114.293 147.517 114.918 147.767 115.426 148.164C115.901 148.535 116.276 149.035 117 150C117.592 154.592 117.565 156.871 115.5 161C112.196 163.643 109.963 163.443 106.137 163.1C105.773 163.067 105.395 163.033 105 163L103 159H101C100.693 154.388 100.582 152.73 101.063 151.267C101.333 150.446 101.788 149.686 102.5 148.5ZM130.211 152.379C128.142 151.914 126.071 151.456 124 151V156C129.801 158.099 135.639 159.041 141.707 160.002C143.924 160.345 146.141 160.69 148.356 161.049C149.813 161.286 151.27 161.519 152.728 161.748L154.82 162.074C155.117 162.121 155.409 162.168 155.698 162.214C159.322 162.797 162.405 163.293 166 162L165.752 161.924C155.829 158.859 145.942 155.807 135.789 153.59C133.928 153.196 132.068 152.792 130.211 152.379Z" fill="#4DBFC3"/>
<path fill-rule="evenodd" clip-rule="evenodd" d="M72 176C79.4528 153.224 90.0726 133.231 105.938 115.125C139.664 79.5694 183.793 65.4367 231.922 66.8652C267.46 68.4214 303.598 86.5933 327.611 112.497L329 114C349.28 135.396 363.099 160.979 368.642 190.061L369 192C372.673 211.335 371.698 231.188 368.458 250.516C361.047 290.747 334.93 324.611 302 347.656C269.883 369.247 228.344 376.993 190.578 369.637L188 369.125C183.107 368.198 178.372 367.238 173.707 365.465C171.548 364.612 170.647 364.256 169.729 363.946C169.072 363.723 168.405 363.525 167.262 363.184C139.785 355.22 116.415 335.739 98.5547 314.027C73.4121 281.482 62.3757 241.447 66.9331 200.617L67.3125 197.438C68.0876 190.923 69.1651 184.74 71.1677 178.486L72 176ZM342 141C333.684 127.822 323.421 116.615 311.686 106.426C278.424 78.2899 233.935 67.6909 191.322 75.0566L189.187 75.4375L189.122 75.4485C185.46 76.0648 181.896 76.6647 178.402 77.9727C177.25 78.4899 176.632 78.7669 175.999 79.0005C175.268 79.2699 174.517 79.4817 172.898 79.9375C157.7 84.5206 143.789 92.0111 131.137 101.574L128 104C120.804 109.443 114.494 115.29 108.551 122.051L106 125C103.955 127.313 101.988 129.64 100.094 132.078C77.4315 163.704 67.523 202.31 73 241C79.0523 280.318 100.5 314.295 132.359 337.795L134 339C148.46 349.845 165.269 357.571 182.894 361.528L185 362C205.213 367.008 228.446 367.114 248.807 362.694L251 362.188C256.825 360.851 262.547 359.44 268.117 357.242L271 356C285.669 349.698 299.543 342.138 311.836 331.859L314 330C318.971 325.898 323.542 321.633 327.746 316.738L330 314C346.018 294.608 356.145 272.898 362.156 248.5C369.833 213.003 362.142 173.44 343.137 142.799L342 141Z" fill="#4DBFC3"/>
<path d="M213.317 28.3779C212.564 27.8287 211.524 27.6737 207 27V39C209.606 39 210.514 39 211.315 38.7062C211.743 38.5491 212.14 38.3078 212.75 37.9375C213.347 37.0115 213.737 36.408 213.971 35.7494C214.409 34.5172 214.303 33.0919 214 29C213.741 28.7412 213.542 28.542 213.317 28.3779Z" fill="#4DBFC3"/>
<path d="M322 367C319.806 363.587 317.792 361.49 314 360L313 363C315.109 366.827 316.796 369.499 321 371C321.333 370.251 321.518 369.834 321.643 369.4C321.799 368.857 321.861 368.285 322 367Z" fill="#4DBFC3"/>
<path d="M292.001 374L292.003 374C292.798 374.083 293.243 374.129 293.679 374.223C294.235 374.344 294.774 374.545 296 375C298.623 378.373 299.364 380.757 299 385H296C293.517 380.966 292.576 379.435 292.218 377.779C292.001 376.77 292.001 375.715 292.001 374.019V374Z" fill="#4DBFC3"/>
<path fill-rule="evenodd" clip-rule="evenodd" d="M178.29 16.5039L181 16C193.112 13.6933 205.033 12.767 217.352 12.748L219.438 12.75C219.754 12.7503 220.069 12.7503 220.385 12.7503L220.933 12.7503C226.499 12.7495 232.041 12.7487 237.574 13.4585L241 14C243.856 14.4406 246.708 14.8992 249.561 15.3633L252.688 15.875C264.24 17.7134 275.299 20.2358 286.334 24.1582L289.569 25.3377C296.969 28.0284 304.271 30.6834 311.211 34.4297C312.718 35.2782 314.228 36.1216 315.755 36.9346C329.825 44.3832 343.24 53.0287 354.859 63.9766C356.277 65.3166 357.725 66.625 359.203 67.8984C362.173 70.4172 364.882 72.864 367.438 75.8125C368.901 77.6671 370.393 79.43 371.988 81.1758C376.89 86.4834 381.426 91.9369 385.691 97.7695L388 101C391.029 105.176 393.952 109.398 396.678 113.78C423.86 159.412 432.542 215.856 419.82 267.5C405.294 322.308 372.173 368.772 323.172 397.922C276.209 424.978 220.192 433.326 167.63 419.694L165 419C147.208 414.532 130.757 407.501 114.985 398.174L113 397C91.7554 384.822 72.9704 368.827 57.8672 349.492L56 347C53.966 344.328 51.9675 341.642 50.0195 338.906L48 336C45.7282 332.741 43.512 329.461 41.418 326.086C12.886 278.639 5.30033 222.151 18.1594 168.599L18.9375 165.438C20.5516 158.82 22.4311 152.513 25.0559 146.222L26 144C32.9029 126.783 41.3638 110.854 52.4932 95.9946L54 94L54.9197 92.7759C59.6733 86.4456 64.4489 80.0861 70.207 74.6289L72 73C86.4762 59.5739 101.759 47.3249 119.19 37.9678L121 37C139.052 27.1544 158.087 20.3718 178.29 16.5039ZM323 102L325.215 103.84C338.911 115.433 349.827 131.132 358 147L359.015 148.939C364.843 160.204 368.907 171.709 372 184L372.543 186.091C377.654 206.702 377.2 232.489 372 253L371.379 256C365.08 284.795 349.53 310.199 329 331L327.352 332.714C323.334 336.841 319.128 340.45 314.5 343.875L312.396 345.435C294.676 358.378 275.221 367.402 254 373L251.944 373.543C215.706 382.527 174.082 375.062 142 357L140.085 355.95C131.041 350.965 123.149 345.228 115.477 338.326C114.07 337.063 112.643 335.822 111.215 334.582C97.71 322.747 87.9014 308.453 79 293L77.9182 291.153C70.8945 279.075 66.7947 265.207 63.75 251.625L63.2559 249.43C55.1686 211.712 62.9432 169.508 83.6348 137.06C85.6752 133.979 87.8141 130.979 90 128L91.3042 126.208C111.671 98.5167 139.931 78.2084 172.971 68.5908C174.905 68.0277 176.833 67.4479 178.762 66.8672C229.709 52.249 283.505 68.4381 323 102ZM253 25L237 22L238 55C238.783 55.2609 239.361 55.4537 239.948 55.614C241.612 56.068 243.348 56.2609 250 57L258 39L259 59C260.075 59.3582 260.807 59.6024 261.552 59.797C263.148 60.2137 264.803 60.4036 270 61C271.128 58.1855 272.264 55.3743 273.408 52.5664L274.812 49.125L276.182 45.707L277.52 42.4453C278.124 40.8824 278.409 40.1458 278.741 39.4308C279.037 38.7934 279.37 38.1732 280 37L283 35V31L274 30V34H276L270 48L269 28L258 27L250 46V29H253V25ZM182 26C179.66 26 178.689 26 177.726 26.0876C177.043 26.1498 176.364 26.256 175.204 26.4374L172.25 27C170.499 27.33 168.749 27.6622 167 28L166 33H169L173 56H171L172 60C174.804 60.123 177.147 59.9668 179.895 59.3438L182.812 58.5C184.543 58.0061 186.273 57.5081 188 57V53L185 52C183.752 45.3626 182.251 38.8186 180.586 32.2734L180 30H182V26ZM193 23C197.062 22.9127 201.124 22.8595 205.188 22.8125L208.674 22.7363L212.043 22.707L215.137 22.6594C218.461 23.0548 220.317 24.0321 223 26C224.728 29.4557 224.485 33.2212 224 37C221.633 40.419 218.972 41.8914 215 43C212.668 43.0765 210.332 43.0914 208 43V50H211V55H194V51H196L195 28L193 27V23ZM338.438 337.063C334.378 336.989 333.045 337.966 330.211 340.77L328.375 342.812C325.658 345.776 324.283 347.927 324 352C325.952 353.952 327.532 354.848 330 356L334 352L332 346H335C337.097 347.548 337.905 348.419 338.328 351.016L338.25 353.25C338.214 354.835 338.132 356.42 338 358C337.526 360.032 337.309 360.962 337.189 361.906C337.088 362.704 337.057 363.511 337 365L337.001 365.001C337.321 365.348 337.562 365.61 337.814 365.861C338.586 366.629 339.458 367.295 342.999 369.999L343 370C344.511 368.528 346.02 367.054 347.523 365.574L349.375 363.75L351.203 361.973L352.961 360.234C355.254 357.987 356.679 355.932 358 353L352 347L348 349C348.445 349.804 348.683 350.233 348.814 350.693C348.965 351.219 348.976 351.785 349 353L348.999 353.001L348.996 353.004L348.995 353.006L348.993 353.008C347.791 354.422 347.204 355.113 346.563 355.75C345.952 356.356 345.291 356.912 344.003 357.998L344.001 358L345 355C346.473 349.728 347.105 345.077 344.438 340.062C343.302 339.102 342.695 338.588 342.011 338.219C341.227 337.797 340.341 337.563 338.44 337.063L338.438 337.063ZM122 352C125.803 354.005 127.618 355.427 130 359C131.635 360.051 133.299 361.06 135 362C133.875 364.972 132.777 367.334 131 370L126 368L125.625 364.625C125.479 362.656 125.411 361.747 125.012 361.021C124.671 360.398 124.086 359.909 123 359H119C119.591 362.678 121.147 364.594 123.562 367.375C125.796 370.184 126.923 371.642 127.688 375.188C126.482 380.119 124.192 383.205 120 386C115.965 386.828 112.402 386.713 108.703 384.832C104.854 382.1 102.123 379.772 101 375L98 376L96 375C97.2492 371.541 98.6753 368.853 101 366C103.716 366.613 104.529 366.797 105.159 367.239C105.428 367.428 105.664 367.664 106 368C106.503 370.161 106.918 372.333 107.334 374.511L107.402 374.871C107.617 375.945 107.733 376.523 108.006 377.012C108.323 377.58 108.854 378.029 110 379C111.334 379.336 111.976 379.498 112.625 379.625C113.225 379.743 113.832 379.831 115 380C113.975 375.901 112.527 373.33 109.812 370.188C107.412 367.116 106.552 365.232 106.812 361.312C107.443 358.2 108.212 356.676 110 353.938C114.086 351.299 117.262 351.082 122 352ZM157 374.312C155.668 374.198 154.334 374.09 153 374C153.282 378.331 152.917 381.719 151.625 385.875C150.525 389.274 149.575 392.634 148.812 396.125L148 400H145L144 404C147.326 405.109 150.531 405.542 154 406L155 402H152C152.331 401.337 152.564 400.871 152.774 400.396C153.269 399.274 153.635 398.095 154.865 394.138L154.865 394.137L155.562 391.875L156.941 387.43L158 384L158.001 384.001C158.575 385.564 158.834 386.269 158.999 386.996C159.136 387.596 159.209 388.209 159.341 389.328L159.648 392.035C159.893 394.044 160.135 396.053 160.375 398.062L160.719 401.15L161.086 404.099C161.257 405.569 161.335 406.239 161.467 406.899C161.577 407.452 161.726 407.997 162 409C163.356 409.904 164.202 410.468 165.123 410.852C166.65 411.488 168.384 411.627 172.992 411.999L173 412C173.239 411.761 173.427 411.573 173.595 411.368C174.224 410.598 174.563 409.591 176.172 404.807L177 402.312C178.456 398.029 179.834 393.867 180.688 389.418L181 387H184L185 383C181.683 381.578 178.558 380.61 175 380C176.816 385.993 174.704 390.592 172 396L170 378L169.997 377.999C163.984 375.744 162.492 375.185 160.953 374.828C160.445 374.711 159.932 374.615 159.25 374.488L157 374.312ZM243 393L242 384C236.781 383.903 231.731 384.148 226.543 384.711L224 385C220.999 385.329 217.999 385.661 215 386V390C218.183 391.628 218.183 391.628 218.524 394.247L218.73 397.008L218.975 399.996L219.188 403.125C219.473 406.749 219.752 410.373 220 414H218V418C223.333 418.1 228.508 417.835 233.812 417.289L236.5 417C239.667 416.671 242.834 416.34 246 416C246.011 415.322 246.04 414.656 246.068 414C246.189 411.21 246.301 408.603 245 406H240L239 411L231 413V403H240L239 398H230L229 389L237 390L238 393H243ZM208 387L205.5 385.5C199.614 382.978 193.598 382.792 188.5 387.125C183.77 392.564 182.456 397.651 182.723 404.707C183.282 409.33 185.558 411.845 188.938 414.812C193.741 418.066 199.427 417.943 205 417C208.862 414.718 210.193 412.065 212 408L208 406L206.5 409C205.276 410.87 204.775 411.635 204.07 411.974C203.582 412.209 202.997 412.24 202.006 412.293L196 412C195.962 409.932 195.926 407.865 195.902 405.797L195.875 403.25L195.824 400.75L195.805 398.328C195.757 394.976 196.333 392.918 198 390C200 389.957 202 389.959 204 390C204.474 390.437 204.775 390.714 205.028 391.03C205.467 391.578 205.76 392.243 206.563 394.062L208 397H213C213.388 395.788 213.644 394.988 213.808 394.169C214.126 392.573 214.094 390.908 214 386C212.334 385.957 210.666 385.959 209 386L208 387ZM137 365C141.143 365.598 144.182 367.007 147.812 369.062L150.77 370.723L153 372L152 375H148L147.375 377.312C146.128 380.658 144.668 383.368 142.875 386.438C140.308 390.997 139.31 393.828 140 399C137.049 400.253 136.026 400.01 132.984 398.785L129.75 397.062L126.484 395.348L124 394C124.148 393.08 124.226 392.597 124.341 392.123C124.467 391.598 124.639 391.084 125 390L128 389C129.577 386.742 130.773 384.266 131.971 381.788C132.209 381.296 132.447 380.803 132.688 380.312L133.947 377.877C136.165 373.423 137.569 370.1 137 365ZM275 378C276.147 381.104 277.292 384.208 278.438 387.312L281.244 394.915C281.855 396.601 282.433 398.299 283 400H289V404C286.254 405.034 283.505 406.053 280.75 407.062L278.395 407.955L276.109 408.785L274.015 409.563C271.68 410.07 270.246 409.742 268 409V407L272 405C270.849 399.602 269.576 394.29 268 389L266.188 390.5C265.156 391.208 264.61 391.581 264.008 391.779C263.332 392 262.585 392 261 392L260 387L262.375 385.188C263.736 384.157 264.429 383.632 265.001 382.999C265.593 382.343 266.057 381.571 267 380C269.918 378.578 271.732 378 275 378ZM333.418 370.012C332.186 364.082 327.594 358.698 323 355C318.048 353.314 315.309 354.158 311 357C307.983 359.692 306.139 362.007 305.562 366.125C306.21 370.378 307.199 372.199 310.25 375.25C313.49 377.312 315.228 377.419 319 377C319.977 376.511 320.477 376.261 320.864 375.893C321.269 375.507 321.55 374.992 322.125 373.938L323 372H325C325.021 372.406 325.043 372.796 325.064 373.173C325.273 376.857 325.412 379.303 323.375 382.75L322 385C322.44 386.254 322.642 386.828 322.924 387.359C323.162 387.808 323.456 388.227 324 389C326.246 387.403 328.115 385.981 330 384C332.495 379.713 333.622 374.962 333.418 370.012ZM310 382C308.159 376.824 305.521 372.215 301 369C296.193 368.182 292.223 368.485 288 371C284.94 373.975 284.052 375.381 283.688 379.688C284.166 384.764 286.491 387.332 290 391C291.301 391.3 292.091 391.483 292.874 391.456C294.084 391.415 295.277 390.875 298.312 389.5L301 388L301.062 390.875C300.986 394.679 300.566 395.417 297.938 398.125L296 400L298 404C299.389 403.537 300.242 403.253 300.994 402.8C302.191 402.08 303.132 400.933 305.57 397.961C309.252 392.911 310.761 388.201 310 382Z" fill="#4DBFC3"/>
<path fill-rule="evenodd" clip-rule="evenodd" d="M254 4.00001L256.843 4.53859C292.968 11.6415 329.232 26.2428 357 51L359.602 53.3086C361.296 54.8267 362.984 56.3525 364.664 57.8867C366.762 59.7844 368.901 61.6135 371.062 63.4375C408.735 96.5319 431.82 150.481 435.719 199.781C438.219 240.363 431.645 279.331 414 316L412.958 318.168C403.121 338.308 389.357 355.782 374 372L371.344 374.82C364.419 381.969 356.956 388.049 349 394L347.301 395.293C337.745 402.548 327.63 408.456 317 414L313.469 415.867C262.841 441.065 202.509 443.409 149.02 426.477C120.539 416.835 94.353 401.451 72.2734 381.086C70.161 379.148 68 377.29 65.8125 375.438C61.8035 371.932 58.4255 368.067 55 364L52.539 361.234C28.6234 334.161 12.3288 300.276 4.99998 265L4.36717 261.967C-0.947104 235.21 -1.44064 205.8 3.99998 179L4.52 176.398C16.2619 119.409 49.4209 70.0752 97.6748 37.523C109.189 29.9813 121.29 23.2953 134 18L136.089 17.1265C149.667 11.5576 163.638 7.92891 178 5.00001L180.68 4.45216C203.733 -0.00780487 230.906 -0.411608 254 4.00001ZM428 186C420.057 137.506 395.197 93.606 358.508 61.1719C313.146 21.8868 255.111 3.41199 195.389 9.72094L193 10C152.293 14.4002 114.676 31.2659 83.2266 57.3008C82.1511 58.2007 81.0756 59.1004 80 60C69.8166 68.2545 61.1715 78.2673 53.0039 88.4805L51 91C32.0876 113.515 19.7694 141.964 12.6655 170.294L12 173C7.40959 190.976 7.40959 190.977 7.73205 230.135L7.76171 233C8.14137 277.526 28.3333 323.893 57.4648 357.125L60 360C63.2689 363.874 66.4499 367.639 70.3125 370.938C72.3534 372.618 74.3501 374.316 76.3125 376.09C101.036 398.689 130.258 416.139 162.91 424.474L165 425C183.49 429.815 201.636 431.156 220.693 431.241L223.188 431.25C223.887 431.255 224.586 431.261 225.284 431.267C233.212 431.334 241.072 431.401 248.845 429.535C250.29 429.176 251.747 428.861 253.212 428.59C285.529 423.088 315.79 411.157 342.426 391.918L345 390C362.231 377.31 376.575 362.038 389.625 345.125C421.856 301.01 436.788 244.08 428.676 189.781L428 186Z" fill="#4DBFC3"/>
</svg>
