<svg width="500" height="500" viewBox="0 0 500 500" fill="none" xmlns="http://www.w3.org/2000/svg">
<path fill-rule="evenodd" clip-rule="evenodd" d="M286 35L288.843 35.5386C324.968 42.6414 361.232 57.2428 389 82L391.602 84.3086C393.296 85.8266 394.984 87.3524 396.664 88.8867C398.762 90.7844 400.901 92.6135 403.062 94.4375C440.735 127.532 463.82 181.481 467.719 230.781C470.219 271.363 463.645 310.331 446 347L444.958 349.168C435.121 369.308 421.357 386.781 406 403L403.344 405.82C396.419 412.969 388.956 419.049 381 425L379.301 426.293C369.745 433.548 359.63 439.456 349 445L345.469 446.867C294.841 472.065 234.509 474.409 181.02 457.477C152.539 447.835 126.353 432.451 104.273 412.086C102.161 410.148 100 408.29 97.8125 406.437C93.8035 402.932 90.4255 399.067 87 395L84.5391 392.234C60.6234 365.161 44.3288 331.276 37 296L36.3672 292.967C31.0529 266.21 30.5594 236.8 36 210L36.52 207.398C48.2619 150.409 81.4209 101.075 129.675 68.5229C141.189 60.9813 153.29 54.2953 166 49L168.089 48.1265C181.667 42.5576 195.638 38.9289 210 36L212.68 35.4521C235.733 30.9922 262.906 30.5884 286 35ZM390.508 92.1719C427.197 124.606 452.057 168.506 460 217L460.676 220.781C468.788 275.08 453.856 332.01 421.625 376.125C408.575 393.037 394.231 408.31 377 421L374.426 422.918C347.79 442.157 317.529 454.088 285.212 459.59C283.747 459.861 282.29 460.176 280.845 460.535C273.072 462.401 265.212 462.334 257.284 462.267C256.586 462.261 255.887 462.255 255.187 462.25L252.693 462.241C233.636 462.156 215.49 460.815 197 456L194.91 455.474C162.258 447.139 133.036 429.689 108.312 407.09C106.35 405.316 104.353 403.618 102.312 401.937C98.4499 398.639 95.2689 394.874 92 391L89.4648 388.125C60.3333 354.893 40.1414 308.526 39.7617 264L39.7321 261.135C39.4096 221.977 39.4096 221.976 44 204L44.6655 201.294C51.7694 172.964 64.0876 144.515 83 122L85.0039 119.48C93.1715 109.267 101.817 99.2545 112 91C113.076 90.1004 114.151 89.2007 115.227 88.3008C146.676 62.2659 184.293 45.4002 225 41L227.389 40.7209C287.111 34.412 345.146 52.8868 390.508 92.1719ZM213 47L210.29 47.5039C190.087 51.3718 171.052 58.1544 153 68L151.19 68.9678C133.759 78.3249 118.476 90.5739 104 104L102.207 105.629C96.4489 111.086 91.6733 117.446 86.9197 123.776L86 125L84.4932 126.995C73.3638 141.854 64.9029 157.783 58 175L57.0559 177.222C54.4311 183.513 52.5516 189.82 50.9375 196.437L50.1594 199.599C37.3003 253.151 44.886 309.639 73.418 357.086C75.512 360.461 77.7282 363.741 80 367L82.0195 369.906C83.9675 372.642 85.966 375.328 88 378L89.8672 380.492C104.97 399.827 123.755 415.822 145 428L146.985 429.174C162.757 438.501 179.208 445.532 197 450L199.63 450.694C252.192 464.326 308.209 455.978 355.172 428.922C404.173 399.772 437.294 353.308 451.82 298.5C464.542 246.856 455.86 190.412 428.678 144.78C425.952 140.398 423.029 136.176 420 132L417.691 128.77C413.426 122.937 408.89 117.483 403.988 112.176C402.393 110.43 400.901 108.667 399.437 106.812C396.882 103.864 394.173 101.417 391.203 98.8984C389.725 97.625 388.277 96.3166 386.859 94.9766C375.24 84.0287 361.825 75.3832 347.755 67.9346C346.228 67.1216 344.718 66.2782 343.211 65.4297C336.271 61.6834 328.969 59.0284 321.569 56.3377L318.334 55.1582C307.299 51.2358 296.24 48.7134 284.687 46.875L281.561 46.3633C278.708 45.8992 275.856 45.4406 273 45L269.574 44.4585C264.041 43.7487 258.499 43.7495 252.933 43.7503L252.385 43.7503C252.069 43.7503 251.754 43.7503 251.437 43.75L249.352 43.748C237.033 43.767 225.112 44.6933 213 47ZM357.215 134.84L355 133C315.505 99.4381 261.709 83.249 210.762 97.8672C208.833 98.4479 206.905 99.0277 204.971 99.5908C171.931 109.208 143.671 129.517 123.304 157.208L122 159C119.814 161.979 117.675 164.979 115.635 168.06C94.9432 200.508 87.1686 242.712 95.2559 280.43L95.75 282.625C98.7947 296.207 102.895 310.075 109.918 322.153L111 324C119.901 339.453 129.71 353.747 143.215 365.582C144.643 366.822 146.07 368.063 147.477 369.326C155.149 376.228 163.041 381.965 172.085 386.95L174 388C206.082 406.062 247.706 413.527 283.944 404.543L286 404C307.221 398.402 326.676 389.378 344.396 376.435L346.5 374.875C351.128 371.45 355.334 367.841 359.352 363.714L361 362C381.53 341.199 397.08 315.795 403.379 287L404 284C409.2 263.489 409.654 237.702 404.543 217.091L404 215C400.907 202.709 396.843 191.204 391.015 179.939L390 178C381.827 162.132 370.911 146.433 357.215 134.84ZM285 56L269 53L270 86C270.783 86.2609 271.361 86.4537 271.948 86.614C273.612 87.068 275.348 87.2609 282 88L290 70L291 90C292.075 90.3582 292.807 90.6024 293.552 90.797C295.148 91.2137 296.803 91.4036 302 92L302 92C303.128 89.1855 304.264 86.3743 305.408 83.5664L306.812 80.125L308.182 76.707L309.52 73.4453C310.124 71.8824 310.409 71.1458 310.741 70.4308C311.037 69.7937 311.37 69.1738 311.999 68.0019L311.999 68.0011L312 68L315 66V62L306 61V65H308L302 79L301 59L290 58L282 77V60H285V56ZM214 57C211.66 57 210.689 57 209.726 57.0876C209.043 57.1498 208.364 57.256 207.204 57.4374L204.25 58C202.499 58.33 200.749 58.6622 199 59L198 64H201L205 87H203L204 91C206.804 91.123 209.147 90.9668 211.895 90.3437L214.812 89.5C216.543 89.0061 218.273 88.5081 220 88V84L217 83C215.752 76.3626 214.251 69.8186 212.586 63.2734L212 61H214V57ZM225 54C229.062 53.9127 233.124 53.8595 237.187 53.8125L240.674 53.7363L244.043 53.707L247.137 53.6594C250.461 54.0548 252.317 55.0321 255 57C256.728 60.4557 256.485 64.2212 256 68C253.633 71.419 250.972 72.8914 247 74C244.668 74.0765 242.332 74.0914 240 74V81H243V86H226V82H228L227 59L225 58V54ZM370.438 368.063C366.378 367.989 365.045 368.966 362.211 371.77L360.375 373.812C357.658 376.776 356.283 378.927 356 383C357.952 384.952 359.532 385.848 362 387L366 383L364 377H367C369.097 378.548 369.905 379.419 370.328 382.016L370.25 384.25C370.214 385.835 370.132 387.42 370 389C369.526 391.031 369.309 391.962 369.189 392.906C369.088 393.704 369.057 394.511 369 396L369.001 396.001C369.321 396.348 369.562 396.61 369.814 396.861C370.586 397.629 371.458 398.295 374.999 400.999L375 401C376.511 399.528 378.02 398.054 379.523 396.574L381.375 394.75L383.203 392.973L384.961 391.234C387.254 388.987 388.679 386.932 390 384L384 378L380 380C380.445 380.804 380.683 381.233 380.814 381.693C380.965 382.219 380.976 382.785 381 383.998V383.998V383.999V383.999V384L380.999 384.001L380.996 384.004L380.995 384.006L380.993 384.008C379.791 385.422 379.204 386.113 378.563 386.75C377.952 387.356 377.291 387.912 376.003 388.998L376.001 389L377 386C378.473 380.728 379.105 376.077 376.437 371.062C375.302 370.102 374.695 369.588 374.011 369.219C373.227 368.797 372.341 368.563 370.44 368.063L370.44 368.063L370.438 368.063ZM154 383C157.803 385.005 159.618 386.427 162 390C163.635 391.051 165.299 392.06 167 393C165.875 395.972 164.777 398.334 163 401L158 399L157.625 395.625C157.479 393.656 157.411 392.747 157.012 392.021C156.671 391.398 156.086 390.909 155 390H151C151.591 393.678 153.147 395.594 155.562 398.375C157.796 401.184 158.923 402.642 159.687 406.187C158.482 411.119 156.192 414.205 152 417C147.965 417.828 144.402 417.713 140.703 415.832C136.854 413.1 134.123 410.772 133 406L130 407L128 406C129.249 402.541 130.675 399.853 133 397C135.716 397.613 136.529 397.797 137.159 398.239C137.428 398.428 137.664 398.664 138 399C138.503 401.161 138.918 403.333 139.334 405.511L139.402 405.871C139.617 406.945 139.733 407.523 140.006 408.012C140.323 408.58 140.853 409.029 141.999 409.999L141.999 409.999L142 410L142 410L142 410C143.334 410.336 143.976 410.498 144.625 410.625C145.225 410.743 145.831 410.831 146.999 411L147 411C145.975 406.901 144.527 404.33 141.812 401.187C139.412 398.116 138.552 396.232 138.812 392.312C139.443 389.2 140.212 387.676 142 384.937C146.086 382.299 149.262 382.082 154 383ZM189 405.312C187.668 405.198 186.334 405.09 185 405C185.282 409.331 184.917 412.719 183.625 416.875C182.525 420.274 181.575 423.634 180.812 427.125L180 431H177L176 435C179.326 436.109 182.531 436.542 186 437L187 433H184L184 432.999C184.332 432.337 184.564 431.871 184.774 431.396C185.269 430.274 185.635 429.095 186.865 425.138L186.865 425.137L187.562 422.875L188.941 418.43L190 415L190.001 415.001C190.575 416.563 190.834 417.269 190.999 417.996C191.136 418.596 191.209 419.209 191.341 420.328L191.648 423.035C191.893 425.044 192.135 427.053 192.375 429.062L192.719 432.15L193.086 435.099C193.257 436.569 193.335 437.239 193.467 437.899C193.577 438.452 193.726 438.997 194 440C195.356 440.904 196.202 441.468 197.123 441.852C198.65 442.488 200.384 442.627 204.992 442.999L205 443C205.239 442.761 205.427 442.573 205.595 442.368C206.224 441.598 206.563 440.591 208.172 435.807L209 433.312C210.456 429.029 211.834 424.867 212.687 420.418L213 418H216L217 414C213.683 412.578 210.558 411.61 207 411C208.816 416.993 206.704 421.592 204 427L202 409L201.997 408.999C195.984 406.744 194.492 406.185 192.953 405.828C192.445 405.711 191.932 405.615 191.25 405.488L189 405.312ZM275 424L274 415C268.781 414.903 263.731 415.148 258.543 415.711L256 416C252.999 416.329 249.999 416.661 247 417V421C250.183 422.628 250.183 422.628 250.524 425.247L250.73 428.008L250.975 430.996L251.187 434.125C251.473 437.749 251.752 441.373 252 445H250V449C255.333 449.1 260.508 448.835 265.812 448.289L268.5 448C271.667 447.671 274.834 447.34 278 447C278.011 446.322 278.04 445.656 278.068 445C278.189 442.21 278.301 439.602 277 437H272L271 442L263 444V434H272L271 429H262L261 420L269 421L270 424H275ZM240 418L237.5 416.5C231.614 413.978 225.598 413.792 220.5 418.125C215.77 423.564 214.456 428.651 214.723 435.707C215.282 440.33 217.558 442.845 220.937 445.812C225.741 449.066 231.427 448.943 237 448C240.862 445.718 242.193 443.065 244 439L240 437L238.5 440C237.276 441.87 236.775 442.635 236.07 442.974C235.582 443.209 234.997 443.24 234.006 443.293L228 443C227.962 440.932 227.926 438.865 227.902 436.797L227.875 434.25L227.824 431.75L227.805 429.328C227.757 425.976 228.333 423.918 230 421C232 420.957 234 420.959 236 421C236.474 421.437 236.775 421.714 237.028 422.03C237.467 422.578 237.76 423.243 238.562 425.062L240 428H245L245 428C245.388 426.788 245.644 425.988 245.808 425.169C246.126 423.573 246.094 421.908 246 417C244.334 416.957 242.666 416.959 241 417L240 418ZM169 396C173.143 396.598 176.182 398.007 179.812 400.062L182.77 401.723L185 403L184 406H180L179.375 408.312C178.128 411.657 176.668 414.368 174.875 417.437C172.308 421.997 171.31 424.828 172 430C169.049 431.253 168.026 431.01 164.984 429.785L161.75 428.062L158.484 426.348L156 425C156.148 424.08 156.226 423.597 156.341 423.123C156.467 422.598 156.639 422.084 157 421L160 420C161.577 417.742 162.773 415.266 163.971 412.788C164.092 412.536 164.214 412.285 164.336 412.033C164.453 411.792 164.57 411.552 164.687 411.312L165.947 408.877C168.165 404.423 169.569 401.1 169 396ZM307 409C308.147 412.104 309.292 415.208 310.437 418.312L313.244 425.915C313.855 427.601 314.433 429.299 315 431H321V435C318.254 436.034 315.505 437.052 312.75 438.062L310.395 438.955L308.109 439.785L306.015 440.563C303.68 441.07 302.246 440.742 300 440V438L304 436C302.849 430.602 301.576 425.29 300 420L298.187 421.5C297.156 422.208 296.61 422.581 296.008 422.779C295.332 423 294.585 423 293 423L292 418L294.375 416.187L294.375 416.187C295.736 415.156 296.429 414.632 297.001 413.999C297.593 413.344 298.057 412.572 298.999 411.001L299 411.001L299 411C301.918 409.578 303.732 409 307 409ZM365.418 401.012C364.186 395.082 359.594 389.698 355 386C350.048 384.314 347.309 385.158 343 388C339.983 390.692 338.139 393.007 337.562 397.125C338.21 401.378 339.199 403.199 342.25 406.25C345.49 408.312 347.228 408.419 351 408C351.977 407.511 352.477 407.261 352.864 406.893C353.269 406.507 353.55 405.992 354.125 404.937L355 403H357C357.021 403.406 357.043 403.796 357.064 404.173C357.273 407.857 357.412 410.303 355.375 413.75L354 416C354.44 417.254 354.642 417.828 354.924 418.359C355.161 418.808 355.456 419.227 355.998 419.998L355.999 419.999L356 420C358.246 418.403 360.115 416.981 362 415C364.495 410.713 365.622 405.962 365.418 401.012ZM342 413C340.159 407.824 337.521 403.215 333 400C328.193 399.182 324.223 399.485 320 402C316.94 404.975 316.052 406.381 315.687 410.687C316.166 415.764 318.491 418.332 322 422C323.301 422.3 324.091 422.483 324.874 422.456C326.084 422.415 327.277 421.875 330.312 420.5L333 419L333.062 421.875C332.986 425.679 332.566 426.417 329.937 429.125L328 431L330 435C331.389 434.537 332.242 434.253 332.994 433.8C334.191 433.08 335.132 431.933 337.57 428.962L337.57 428.961L337.57 428.961C341.252 423.911 342.761 419.201 342 413ZM245.317 59.3779C244.564 58.8287 243.524 58.6737 239 58V70C241.606 70 242.514 70 243.315 69.7062C243.743 69.5491 244.14 69.3078 244.75 68.9375C245.347 68.0115 245.737 67.408 245.971 66.7494C246.409 65.5172 246.303 64.0919 246 60C245.741 59.7412 245.542 59.542 245.317 59.3779ZM137.937 146.125C122.073 164.231 111.453 184.224 104 207L103.168 209.486C101.165 215.74 100.088 221.923 99.3125 228.437L98.9331 231.617C94.3757 272.447 105.412 312.482 130.555 345.027C148.415 366.739 171.785 386.22 199.262 394.184L199.264 394.184L199.276 394.188C200.411 394.526 201.074 394.724 201.729 394.946C202.647 395.256 203.548 395.612 205.707 396.465C210.372 398.238 215.107 399.198 220 400.125L222.578 400.637C260.344 407.993 301.883 400.247 334 378.656C366.93 355.611 393.047 321.747 400.458 281.516C403.698 262.188 404.673 242.335 401 223L400.642 221.061C395.099 191.979 381.28 166.396 361 145L359.611 143.497C335.598 117.593 299.46 99.4214 263.922 97.8652C215.793 96.4367 171.664 110.569 137.937 146.125ZM374 172C365.684 158.822 355.421 147.615 343.686 137.426C310.424 109.29 265.935 98.6909 223.322 106.057L221.187 106.437L221.122 106.448C217.46 107.065 213.896 107.665 210.402 108.973C209.25 109.49 208.632 109.767 207.999 110.001C207.268 110.27 206.517 110.482 204.898 110.937C189.7 115.521 175.789 123.011 163.137 132.574L160 135C152.804 140.443 146.494 146.29 140.551 153.051L138 156C135.955 158.313 133.988 160.64 132.094 163.078C109.432 194.704 99.5231 233.31 105 272C111.052 311.318 132.5 345.295 164.359 368.795L166 370C180.46 380.845 197.269 388.571 214.894 392.528L217 393C237.213 398.008 260.446 398.114 280.807 393.694L283 393.187C288.825 391.851 294.547 390.44 300.117 388.242L303 387C317.669 380.698 331.543 373.138 343.836 362.859L346 361C350.971 356.898 355.542 352.633 359.746 347.738L362 345C378.018 325.608 388.145 303.898 394.156 279.5C401.833 244.003 394.142 204.44 375.137 173.799L374 172ZM354 398C351.806 394.587 349.792 392.49 346 391L345 394C347.109 397.827 348.796 400.499 353 402C353.333 401.251 353.518 400.834 353.643 400.4C353.799 399.857 353.861 399.285 354 398ZM324.001 405L324.003 405L324.005 405C324.798 405.083 325.244 405.129 325.679 405.223C326.235 405.344 326.774 405.544 328 406C330.623 409.373 331.364 411.757 331 416H328C325.517 411.966 324.576 410.435 324.218 408.779C324.001 407.77 324.001 406.715 324.001 405.019V405ZM190 147L191 148L190.902 151.902C190.783 156.514 190.724 158.778 191.214 160.917C191.686 162.98 192.669 164.925 194.599 168.748C198.884 171.904 203.711 173.977 208.609 176.003C211.994 177.414 215.241 179.063 218.508 180.722L218.687 180.812L220.626 181.764C226.987 184.902 233.126 188.425 239.275 191.953L239.276 191.954L239.285 191.959L239.295 191.965L239.304 191.97L240.843 192.853C249.323 197.685 257.952 202.197 266.664 206.598C268.604 207.588 270.534 208.599 272.451 209.634L272.453 209.635L272.456 209.637C273.753 210.355 274.368 210.696 275 211C275.568 211.273 276.15 211.518 277.254 211.981C279.485 213.132 280.613 213.894 282 216C282.848 220.799 282.658 225.459 282.437 230.312L282.342 234.291C282.259 237.53 282.144 240.764 282 244L285.648 243.93C287.224 243.911 288.799 243.893 290.375 243.875L292.781 243.824C294.855 243.807 296.929 243.897 299 244C301.292 246.292 301.505 247.741 301.926 250.594C301.971 250.899 302.018 251.219 302.07 251.559L302.598 254.916L303.125 258.437L303.676 261.947C304.619 268.049 304.89 269.805 304.968 271.57C305 272.283 305 272.997 305 274H361C362.934 279.803 363.882 285.049 364.687 291.062L365.119 294.033L365.512 296.91L365.87 299.508C366.01 302.2 365.687 304.399 365 307C364.548 307.452 364.3 307.7 364.003 307.846C363.642 308.025 363.208 308.054 362.247 308.12L359.939 308.114L357.331 308.113L354.496 308.098L351.608 308.093C348.551 308.088 345.494 308.075 342.437 308.062C340.37 308.057 338.303 308.053 336.236 308.049C331.158 308.038 326.079 308.021 321 308V311L323.016 310.952C326.052 310.89 329.088 310.851 332.125 310.812L335.297 310.736C341.989 310.673 346.735 310.988 351.863 315.719L353.312 317.5L354.801 319.281C357.414 323.027 357.295 326.58 357 331C355.105 336.785 352.432 340.911 347.16 344.12C344.592 345.166 342.654 345.254 339.883 345.261L336.752 345.282L333.334 345.275L329.721 345.29C326.455 345.302 323.188 345.304 319.922 345.302C317.235 345.301 314.547 345.305 311.86 345.31L311.736 345.31C305.298 345.321 298.86 345.322 292.422 345.316C285.783 345.31 279.146 345.322 272.507 345.343C266.805 345.361 261.102 345.367 255.399 345.364C251.994 345.362 248.59 345.364 245.185 345.378C241.389 345.391 237.592 345.384 233.795 345.372L230.383 345.395L227.244 345.374L224.525 345.375C218.605 344.496 215.46 340.583 212 336C209.425 332.321 209.478 328.341 210 324C212 318.118 216.466 313.767 222 311C223.787 310.909 225.578 310.882 227.368 310.886L230.765 310.887L234.445 310.902L238.203 310.907C241.501 310.911 244.799 310.92 248.097 310.931C251.209 310.941 254.322 310.945 257.434 310.95L258.191 310.951C264.794 310.962 271.397 310.979 278 311V308L274.711 308.016C270.699 308.034 266.686 308.045 262.674 308.055C260.935 308.06 259.196 308.067 257.456 308.075C254.962 308.088 252.467 308.093 249.973 308.098L247.602 308.113C245.734 308.113 243.867 308.062 242 308C241.687 307.687 241.472 307.472 241.32 307.219C240.986 306.664 240.956 305.927 240.859 303.574C240.926 298.597 241.564 293.737 242.25 288.812L242.65 285.87C242.94 283.744 243.231 281.619 243.525 279.493C243.949 276.374 244.358 273.254 244.76 270.132C245.018 268.13 245.28 266.128 245.544 264.126C245.886 261.525 246.223 258.924 246.554 256.322L247.035 252.73L247.453 249.524C247.715 248.315 247.852 247.685 248.142 247.137C248.459 246.541 248.958 246.042 250 245H256L254 229L249 227C247.623 226.248 246.264 225.462 244.926 224.645L242.669 223.269L240.312 221.812L237.868 220.311C232.929 217.256 228.129 214.07 223.414 210.676C219.903 208.239 216.258 206.025 212.607 203.809L212.585 203.796L212.564 203.783C212.119 203.513 211.675 203.243 211.23 202.973C206.656 200.179 202.143 197.291 197.628 194.402L197 194C194.938 192.687 192.875 191.374 190.812 190.062L186 187L185.484 188.871C184.025 193.973 182.333 198.77 180.102 203.582C178.827 206.381 177.664 209.216 176.5 212.062C175.093 215.47 173.645 218.795 171.937 222.062C170.401 225.037 169.232 228.027 168.125 231.187C165.744 237.954 162.674 244.392 159.592 250.857C159.39 251.282 159.187 251.707 158.984 252.133C157.19 256.056 156.254 259.686 156 264L158 266C158.066 267.378 158.097 268.032 158.094 268.687C158.091 269.279 158.059 269.871 158 271L153 272L151 268H149L148.223 266.453C145.037 260.404 141.173 255.079 136.988 249.699C133.064 244.372 132.281 240.544 133 234C134.471 228.503 137.215 224.638 142.125 221.75C144.989 221.003 147.235 220.924 150.18 220.953L152.914 220.974L155 221L155.396 218.807L155.396 218.804C158.825 199.86 159.802 194.461 161.003 189.112C161.482 186.98 161.996 184.856 162.714 181.885L162.715 181.884C163.691 177.784 164.103 173.947 164.312 169.75C165.406 162.157 172.259 156.825 178.295 152.129C179.224 151.406 180.134 150.699 181 150L183.309 148.113C185.617 146.594 187.299 146.708 190 147ZM228.687 317.86L231.682 317.842L234.98 317.839L238.444 317.824C242.24 317.809 246.036 317.802 249.832 317.797L257.724 317.78C262.54 317.77 267.356 317.764 272.172 317.761C279.258 317.757 286.345 317.739 293.432 317.71C299.57 317.686 305.708 317.678 311.846 317.676C314.457 317.673 317.068 317.665 319.679 317.652C323.33 317.635 326.981 317.637 330.632 317.644L333.912 317.616C339.752 317.648 341.908 317.66 343.666 318.502C344.694 318.994 345.586 319.77 347 321C349.484 324.726 349.38 326.587 349 331C347.349 334.539 346.284 335.811 343 338C341.985 338.118 341.435 338.182 340.883 338.217C340.233 338.259 339.579 338.262 338.155 338.267L335.13 338.293L331.815 338.291L328.321 338.311C324.498 338.33 320.675 338.334 316.852 338.336C314.87 338.341 312.888 338.346 310.906 338.351C304.673 338.367 298.439 338.372 292.206 338.371C285.779 338.369 279.352 338.391 272.924 338.422C267.404 338.448 261.884 338.459 256.363 338.458C253.067 338.457 249.771 338.465 246.475 338.484C242.798 338.504 239.121 338.498 235.444 338.486L232.141 338.52C227.635 338.482 225.879 338.468 224.306 337.924C223.301 337.578 222.371 337.016 220.847 336.095C217.944 332.803 217.667 330.439 217.707 326.039C218.163 322.869 219.753 321.181 222 319C224.269 317.866 225.769 317.864 228.172 317.861H228.179L228.367 317.86C228.472 317.86 228.578 317.86 228.687 317.86ZM294 252H291C290.963 254.816 290.91 257.631 290.84 260.447L290.75 263.937L290.744 264.388C290.658 271.342 290.576 277.845 287.269 284.138C282.74 288.051 280.439 290.04 277.794 291.321C275.06 292.645 271.96 293.213 265.655 294.368C264.246 294.667 262.839 294.973 261.433 295.284C258.172 296.013 254.909 296.732 251.643 297.437L249 298V301H357C357 299.208 357 297.951 356.947 296.696C356.822 293.751 356.403 290.818 355 281L299 280C298.189 276.755 297.683 273.675 297.302 270.363C296.594 264.117 295.764 258.049 294 252ZM250 291C251.469 277.971 253.203 264.988 255 252H283L283.312 264.625L283.45 268.573V268.575C283.528 275.032 283.553 277.134 282.788 278.892C282.418 279.74 281.865 280.509 281.044 281.647L281.043 281.648C275.376 286.028 268.462 287.354 261.548 288.68C260.677 288.847 259.806 289.014 258.937 289.187L256.314 289.725C254.211 290.155 252.105 290.578 250 291ZM181 183C184.331 174.377 185.538 167.271 185 158C184.146 158 183.657 158 183.199 158.12C182.585 158.282 182.028 158.66 180.723 159.547C174.867 164.396 171.874 168.002 170.5 175.512C170.131 178.084 169.737 180.644 169.312 183.207C169.062 184.721 168.812 186.236 168.562 187.75C167.734 193.026 166.77 198.189 165.415 203.356C163.487 210.565 162.283 217.521 162 225H165C167.172 219.844 169.142 214.661 170.867 209.337L171.094 208.631C172.529 204.18 173.943 199.788 176.125 195.625C177.51 193.044 178.579 190.533 179.5 187.75C179.992 186.164 180.492 184.581 181 183ZM153 228C155.76 228.854 158.33 229.876 161 231V235H159L158.723 237.012C157.787 240.882 156.166 244.235 154.44 247.808L154.437 247.812L153.439 249.912C152.631 251.61 151.816 253.306 151 255H149C142.657 247.593 140.536 245.115 139.706 242.261C139.289 240.827 139.199 239.298 139.062 237C139.458 233.644 140.131 232.84 142.345 230.197L142.562 229.937C146.596 227.664 148.437 227.371 153 228ZM313 311V308H285V311H313ZM190 175C193.493 175.571 196.193 176.442 199.281 178.16L201.786 179.54L204.5 181.062L207.398 182.665C210.487 184.374 213.571 186.091 216.655 187.808L217 188C221.1 190.272 225.202 192.541 229.305 194.807C230.518 195.477 231.731 196.148 232.944 196.819C246.558 204.346 260.269 211.688 274 219V244H263L262.695 240.309C262.314 235.838 262.126 233.63 261.553 231.527C260.994 229.476 260.069 227.523 258.242 223.668C255.596 221.847 252.867 220.452 250 219C247.802 217.654 245.639 216.261 243.473 214.865C241.016 213.282 238.544 211.726 236.066 210.176C230.421 206.639 224.789 203.082 219.16 199.519C215.024 196.903 210.88 194.301 206.723 191.719L204.105 190.086C202.453 189.056 200.798 188.029 199.141 187.008C194.197 183.917 192.544 182.883 191.191 181.546C190.511 180.874 189.907 180.125 189 179C189.136 177.78 189.198 177.221 189.346 176.687C189.471 176.235 189.657 175.801 190 175ZM351 288H331L330 293C331.187 294.187 331.669 294.669 332.252 294.92C332.651 295.091 333.096 295.154 333.848 295.259L338.477 295.273L341 295.25L343.523 295.273L346.353 295.265C349.195 295.261 349.74 295.26 352 293L351 288ZM243.877 323.853L246.435 323.855L249.116 323.845C252.055 323.835 254.994 323.833 257.934 323.832C259.968 323.829 262.002 323.825 264.036 323.822C268.305 323.816 272.575 323.814 276.845 323.815C282.328 323.815 287.81 323.801 293.293 323.784C297.495 323.773 301.698 323.771 305.901 323.771C307.923 323.77 309.944 323.766 311.966 323.758C314.789 323.748 317.612 323.751 320.435 323.757L322.987 323.74C326.631 323.76 327.979 323.767 329.035 324.327C329.656 324.656 330.175 325.175 331 326C330.625 329.078 330.503 330.076 330.018 330.846C329.785 331.215 329.469 331.531 329 332C326.18 332.106 323.385 332.147 320.565 332.145L317.884 332.155C314.945 332.165 312.006 332.167 309.066 332.168C307.032 332.171 304.998 332.175 302.964 332.178C298.695 332.184 294.425 332.186 290.155 332.185C284.672 332.185 279.19 332.199 273.707 332.216C269.505 332.227 265.302 332.229 261.099 332.229C259.077 332.23 257.056 332.234 255.034 332.242C252.211 332.252 249.388 332.249 246.565 332.243L244.013 332.26C240.369 332.24 239.021 332.233 237.965 331.673C237.344 331.344 236.825 330.825 236 330C236.745 323.893 237.855 323.887 243.794 323.854L243.877 323.853ZM337 324C338.109 324.196 338.639 324.289 339.159 324.423C339.636 324.545 340.103 324.701 341 325C341.301 326.142 341.457 326.735 341.579 327.335C341.711 327.981 341.805 328.635 341.999 329.992L342 329.998L342 330L340 332C338.891 331.804 338.361 331.711 337.841 331.577C337.364 331.455 336.897 331.299 336 331C335.699 329.858 335.543 329.265 335.421 328.665C335.289 328.019 335.195 327.365 335.001 326.008L335 326.002L335 326L337 324ZM227 324L227.001 324L227.001 324C228.109 324.196 228.639 324.289 229.159 324.423C229.636 324.545 230.103 324.701 231 325C231.301 326.142 231.457 326.735 231.579 327.335C231.712 327.982 231.805 328.637 232 330L230 332H230L229.999 332L229.999 332C228.891 331.804 228.361 331.711 227.841 331.577C227.364 331.455 226.897 331.299 226 331C225.699 329.858 225.543 329.265 225.421 328.665C225.288 328.018 225.195 327.363 225 326L227 324H227Z" fill="#2FB4B3"/>
</svg>
