<svg width="825" height="530" viewBox="0 0 825 530" fill="none" xmlns="http://www.w3.org/2000/svg">
<path d="M13.0625 374.563C32.1737 358.705 56.4764 363.745 78.5 369.251V387.251H75.5C75.005 386.055 74.51 384.858 74 383.626C70.8098 377.302 65.6492 373.859 59.125 371.376C50.9412 368.995 42.1223 369.525 34.4375 373.251C27.1251 377.461 22.0792 383.217 19.1992 391.188C16.6549 402.332 17.6757 413.312 23.5 423.251C27.5687 429.613 33.5829 434.014 40.9531 435.868C45.1295 436.496 49.1403 436.631 53.042 436.195C61.0186 434.753 67.1631 432.057 73.1885 426.621C74.653 425.205 76.0802 423.746 77.5 422.251L80.5 423.251C80.4093 424.491 80.2482 425.662 80.0068 426.774C79.975 426.921 79.942 427.067 79.9072 427.212C79.0739 430.686 77.406 433.588 74.5 436.251C71.5129 438.044 68.6833 439.349 65.8135 440.14C64.6868 440.512 63.5501 440.846 62.4023 441.143C62.4342 441.179 62.4669 441.214 62.5 441.251C62.3753 441.238 62.2507 441.225 62.126 441.213C58.0415 442.249 53.8274 442.849 49.5 443.251C48.6815 443.335 47.8629 443.418 47.0195 443.505C34.2718 444.167 20.7839 439.735 11.293 431.286C4.07916 423.885 0.272057 415.549 0 405.188C0.516551 392.846 4.09456 383.21 13.0625 374.563ZM487.5 374.251C500.848 373.125 503.941 372.866 507.247 374.251H507.5V374.358C508.418 374.764 509.374 375.297 510.586 375.974C512.843 378.282 514.633 380.617 516.5 383.251C522.516 390.748 529.511 397.414 536.309 404.189C538.329 406.204 540.343 408.224 542.357 410.245C543.64 411.527 544.924 412.809 546.207 414.091C546.809 414.695 547.411 415.299 548.031 415.922C550.985 418.956 550.985 418.956 554.5 421.251L553.5 379.251C552.907 379.103 552.315 378.954 551.722 378.806C551.648 378.953 551.574 379.102 551.5 379.251L545.5 377.251V374.251H568.5V377.251C567.551 377.54 566.602 377.828 565.625 378.126C562.448 379.019 562.448 379.019 560.5 381.251C560.168 383.921 560.168 383.921 560.182 387.078C560.162 388.299 560.142 389.52 560.121 390.778C560.109 392.115 560.097 393.453 560.086 394.79C560.067 396.155 560.048 397.52 560.027 398.885C559.976 402.478 559.937 406.072 559.899 409.666C559.859 413.332 559.808 416.999 559.758 420.665C559.661 427.86 559.577 435.055 559.5 442.251H555.5C554.119 440.623 552.798 438.945 551.5 437.251C550.34 436.196 549.155 435.167 547.955 434.157C543.063 429.934 538.523 425.399 533.969 420.817C533.092 419.939 532.216 419.062 531.312 418.157C528.539 415.378 525.77 412.596 523 409.813C521.11 407.918 519.219 406.023 517.328 404.128C512.716 399.505 508.107 394.879 503.5 390.251C503.426 396.301 503.371 402.352 503.335 408.403C503.32 410.461 503.299 412.52 503.273 414.578C503.237 417.537 503.22 420.495 503.207 423.454C503.192 424.374 503.176 425.294 503.16 426.242C503.139 431.216 503.139 431.216 504.819 435.816C507.208 437.855 509.432 437.978 512.5 438.251V441.251H488.5V438.251L495.5 435.251V435.257C495.881 434.828 496.111 434.242 496.5 433.251C496.615 431.675 496.67 430.094 496.693 428.514C496.709 427.529 496.725 426.544 496.741 425.529C496.786 421.024 496.828 416.518 496.851 412.013C496.867 409.635 496.894 407.258 496.933 404.881C496.987 401.456 497.009 398.032 497.023 394.606C497.046 393.545 497.068 392.483 497.092 391.39C497.102 385.292 497.103 385.292 494.112 380.092C491.775 378.444 490.314 377.564 487.5 377.251V374.251ZM142.882 386.182C143.626 387.808 144.371 389.435 145.115 391.06C149.178 399.932 153.216 408.81 157.125 417.751C161.241 429.277 161.241 429.277 169.176 437.532L171.5 438.251V441.251H141.5V438.251L143.938 437.501C146.569 436.543 146.569 436.543 147.312 434.587C147.587 431.166 146.373 428.772 145.062 425.626C142.5 419.412 142.5 419.412 142.5 417.251H115.5L114.125 421.438C113.836 422.318 113.543 423.18 113.239 424.032L112.5 426.251L111.25 429.001C110.286 431.893 110.354 433.425 111.5 436.251C113.976 437.626 113.976 437.626 116.5 438.251V441.251H92.5V438.251L95.6875 437.251C97.2372 436.569 98.6263 435.582 99.8867 434.375C104.107 430.238 106.41 423.624 108.863 418.501C109.259 417.685 109.655 416.868 110.062 416.027C110.305 415.525 110.546 415.022 110.788 414.52C111.131 413.731 111.47 412.971 111.812 412.251C112.464 410.89 113.115 409.529 113.768 408.169C115.35 404.865 116.927 401.559 118.5 398.251L118.627 398.293C118.664 398.216 118.701 398.14 118.738 398.063C119.136 397.24 119.534 396.416 119.944 395.567C123.723 387.759 127.596 379.998 131.5 372.251H136.5C138.628 376.894 140.756 381.538 142.882 386.182ZM213.5 376.251L205.5 378.251C205.475 386.029 205.457 393.807 205.445 401.585C205.44 404.232 205.433 406.879 205.425 409.526C205.413 413.326 205.407 417.126 205.402 420.927C205.397 422.114 205.392 423.302 205.387 424.525C205.387 425.626 205.387 426.727 205.387 427.861C205.383 429.317 205.383 429.318 205.38 430.803C205.397 433.39 205.397 433.39 206.5 436.251C209.522 436.136 212.542 436.009 215.562 435.876L218.131 435.782C219.714 435.709 221.227 435.593 222.706 435.422C227.072 434.84 231.146 433.702 235.5 432.251C235.723 431.77 235.899 431.385 236.048 431.057C235.884 431.115 235.702 431.178 235.5 431.251C236.02 430.341 236.54 429.43 237.062 428.516C237.184 428.168 237.326 427.759 237.5 427.251L239.5 424.251H242.5L241.5 432.251L241.188 431.938L241.133 432.259C240.5 435.251 240.5 435.251 238.5 441.251H182.5V438.251L185.438 437.376C188.607 436.609 188.607 436.609 189.5 434.251C189.591 432.494 189.617 430.734 189.613 428.975C189.613 427.874 189.613 426.773 189.613 425.639C189.608 424.446 189.603 423.253 189.598 422.024C189.596 420.198 189.596 420.197 189.594 418.334C189.588 414.431 189.575 410.528 189.562 406.626C189.557 403.985 189.553 401.345 189.549 398.704C189.538 392.22 189.521 385.735 189.5 379.251L182.5 376.251V374.251H213.5V376.251ZM293.5 372.251L294.574 374.985C301.053 391.203 308.629 406.937 316.082 422.724C316.455 423.513 316.827 424.303 317.211 425.116C317.881 426.534 318.554 427.951 319.229 429.366C320.466 431.975 321.586 434.508 322.5 437.251L328.5 438.251V441.251H299.5V438.251L303.5 436.251C303.885 429.007 303.885 429.007 298.5 418.251L272.5 417.251C270.123 424.188 270.123 424.188 268.25 431.188L267.734 433.403C267.314 435.343 267.314 435.343 268.5 437.251C271.027 437.906 271.027 437.906 273.5 438.251V441.251H250.5V438.251L255.676 436.298C260.042 433.792 261.685 428.931 263.652 424.52C263.949 423.861 264.245 423.2 264.551 422.52C265.187 421.104 265.821 419.687 266.453 418.269C268.114 414.546 269.793 410.83 271.473 407.114C271.794 406.402 272.116 405.69 272.446 404.958C272.576 404.667 272.707 404.377 272.837 404.086C273.388 402.858 273.949 401.636 274.52 400.419C277.087 394.839 279.714 389.288 282.375 383.751C282.88 382.696 283.386 381.641 283.906 380.555C287.907 372.266 287.907 372.265 291.062 372.188L293.5 372.251ZM409.609 373.865C412.32 373.756 414.978 373.816 417.688 373.938L420.537 374.007C422.86 374.066 425.179 374.148 427.5 374.251V377.251L421.5 379.251C421.399 390.779 421.572 402.257 422.189 413.77C422.315 416.174 422.42 418.577 422.525 420.981C422.606 422.527 422.687 424.073 422.77 425.618C422.798 426.328 422.826 427.039 422.855 427.77C423.097 431.795 423.551 434.398 426.5 437.251C429.099 438.055 429.099 438.055 431.5 438.251V441.251H401.5V438.251L404.438 437.376C407.607 436.609 407.607 436.609 408.5 434.251C408.63 431.675 408.69 429.14 408.688 426.563C408.687 425.784 408.688 425.005 408.688 424.202C408.624 417.379 408.152 410.609 407.562 403.813C407.476 402.813 407.389 401.812 407.3 400.781C406.817 395.435 406.817 395.434 405.5 390.251C405.138 391.04 404.776 391.828 404.408 392.632C404.442 392.835 404.474 393.041 404.5 393.251C403.512 395.816 403.512 395.816 401.973 398.673L400.322 401.778L398.562 405.001C398.324 405.447 398.085 405.893 397.846 406.341C396.074 409.895 394.257 413.428 392.375 416.938C388.299 424.551 384.716 432.236 381.5 440.251H378.5C377.323 438.006 376.159 435.755 375 433.501C374.666 432.867 374.332 432.232 373.988 431.579C372.228 428.131 371.5 426.202 371.5 422.251H369.5L368.906 420.591C366.547 414.337 363.628 408.535 360.406 402.694C358.177 398.63 356.267 394.538 354.5 390.251C353.99 393.313 353.544 395.989 353.162 398.372C352.701 409.437 352.636 411.818 352.367 424.681C352.868 428.059 353.579 432.064 354.5 437.251C357.063 437.981 357.063 437.981 359.5 438.251V441.251H336.5V438.251L339.312 437.563C343.194 435.965 343.766 435.014 345.5 431.251C345.675 430.007 345.818 428.802 345.934 427.6C346.072 425.889 346.137 424.174 346.188 422.438L346.291 420.05C346.373 418.117 346.438 416.184 346.5 414.251H346.65C346.663 413.959 346.675 413.667 346.688 413.376C346.769 411.743 346.852 410.11 346.936 408.477C347.415 398.728 347.607 389.011 347.5 379.251L340.5 376.251V374.251H362.5L365.062 379.849C372.906 400.353 372.906 400.353 384.5 418.251C385.716 415.937 386.765 413.938 387.693 412.17C389.098 409 390.798 405.978 392.522 402.923C395.039 398.055 397.156 393.851 402 384.214C402.819 382.552 403.659 380.901 404.5 379.251L405.578 376.341C407.5 374.251 407.5 374.251 409.609 373.865ZM472.5 377.251C470 378.376 470 378.376 467.5 379.251C465.81 380.941 466.364 383.066 466.354 385.382C466.348 386.476 466.342 387.571 466.335 388.699C466.334 389.891 466.333 391.082 466.332 392.309C466.329 393.524 466.326 394.739 466.322 395.99C466.317 398.565 466.314 401.14 466.314 403.715C466.312 407.667 466.294 411.62 466.275 415.573C466.272 418.069 466.27 420.564 466.27 423.059C466.262 424.249 466.255 425.439 466.248 426.665C466.251 427.763 466.254 428.86 466.257 429.991C466.255 430.961 466.254 431.931 466.253 432.93C466.275 435.445 466.275 435.445 468.5 437.251C471.071 437.899 471.071 437.899 473.5 438.251V441.251H444.5V438.251L446.938 437.313C449.391 436.488 449.391 436.487 450.5 435.251C450.594 433.502 450.617 431.749 450.613 429.997C450.613 428.876 450.613 427.755 450.613 426.599C450.608 425.38 450.603 424.16 450.598 422.903C450.596 421.041 450.596 421.041 450.594 419.141C450.589 415.835 450.579 412.529 450.568 409.223C450.558 405.851 450.554 402.48 450.549 399.108C450.538 392.489 450.521 385.87 450.5 379.251L444.5 377.251V374.251H473.5L472.5 377.251ZM646.5 389.251H643.5C643.253 388.323 643.005 387.395 642.75 386.438C641.338 382.837 640.851 382.052 637.5 380.251C634.423 379.748 631.363 379.648 628.25 379.563L625.703 379.46C623.636 379.378 621.568 379.313 619.5 379.251C619.584 386.518 619.679 393.785 619.787 401.052C619.837 404.426 619.884 407.8 619.922 411.175C619.967 415.052 620.025 418.929 620.086 422.806C620.097 424.02 620.109 425.235 620.121 426.486C620.141 427.607 620.161 428.729 620.182 429.884C620.195 430.874 620.208 431.864 620.222 432.885C620.274 435.438 620.274 435.438 622.5 437.251C624.488 437.648 626.489 437.989 628.5 438.251V441.251H597.5V438.251L600.938 436.876C604.547 435.68 604.547 435.68 605.5 433.251C605.619 431.495 605.677 429.735 605.705 427.975C605.725 426.874 605.745 425.773 605.766 424.639C605.782 423.446 605.799 422.253 605.816 421.024C605.837 419.806 605.857 418.589 605.879 417.334C605.944 413.431 606.004 409.528 606.062 405.626C606.106 402.985 606.149 400.345 606.193 397.704C606.301 391.22 606.402 384.735 606.5 378.251C604.103 378.365 601.708 378.492 599.312 378.626L597.271 378.72C593.119 378.963 589.529 379.289 586.427 381.613C585.59 382.451 584.789 383.44 583.945 384.619C583.237 386.083 582.816 387.479 582.5 389.251H579.5C579.473 387.689 579.453 386.126 579.438 384.563L579.402 381.927C579.432 381.104 579.456 380.534 579.5 379.994V379.251H579.577C579.704 378.247 579.948 377.01 580.5 374.251H646.5V389.251ZM687.5 377.251L684.062 378.188C680.712 378.88 680.712 378.88 679.5 380.251C679.342 382.103 679.249 383.96 679.184 385.817C679.146 386.83 679.108 387.842 679.068 388.886C679.004 390.83 679.003 390.83 678.938 392.813L678.5 405.251H715.5L715.125 392.876C715.091 391.589 715.057 390.302 715.022 388.976C714.987 387.966 714.951 386.956 714.914 385.915C714.883 384.878 714.852 383.841 714.819 382.773C714.741 380.083 714.74 380.083 712.5 378.251C710.512 377.853 708.511 377.513 706.5 377.251V374.251H736.5V377.251L733.562 378.188C730.659 378.946 730.659 378.946 729.5 380.251C729.401 381.887 729.372 383.527 729.371 385.166C729.366 386.738 729.366 386.739 729.361 388.343C729.363 389.484 729.365 390.626 729.367 391.802C729.366 393.55 729.366 393.55 729.364 395.334C729.364 397.806 729.366 400.279 729.37 402.751C729.375 406.537 729.37 410.322 729.363 414.108C729.364 416.506 729.365 418.904 729.367 421.302C729.364 423.005 729.364 423.005 729.361 424.743C729.365 425.8 729.368 426.858 729.371 427.947C729.372 428.877 729.372 429.807 729.373 430.765C729.491 433.071 729.849 435.042 730.5 437.251L737.5 438.251V441.251H707.5V438.251L710.438 437.376C713.607 436.609 713.607 436.609 714.5 434.251C714.653 432.366 714.75 430.477 714.816 428.587C714.854 427.577 714.892 426.567 714.932 425.526C714.975 424.239 715.018 422.952 715.062 421.626L715.5 409.251H678.5L678.875 421.563C678.909 422.841 678.943 424.119 678.979 425.435C679.014 426.443 679.049 427.451 679.086 428.489C679.133 430.036 679.134 430.037 679.182 431.615C679.327 434.479 679.327 434.479 681.5 437.251C682.037 437.379 682.481 437.482 682.862 437.571C683.686 437.649 684.599 437.83 685.743 438.084C686.206 438.133 686.76 438.184 687.5 438.251V441.251H657.5V438.251C658.469 437.983 659.439 437.715 660.438 437.438C661.953 436.851 661.953 436.851 663.5 436.251C664.503 433.243 664.633 431.221 664.646 428.077C664.652 427.023 664.658 425.968 664.665 424.882C664.666 423.744 664.667 422.606 664.668 421.434C664.671 420.267 664.674 419.1 664.678 417.897C664.683 415.429 664.686 412.959 664.686 410.49C664.688 406.7 664.706 402.91 664.725 399.12C664.728 396.725 664.73 394.33 664.73 391.934C664.738 390.795 664.745 389.655 664.752 388.481C664.749 387.43 664.746 386.379 664.743 385.296C664.745 383.904 664.745 383.903 664.747 382.483C664.713 380.047 664.713 380.047 662.5 378.251C659.929 377.603 659.929 377.603 657.5 377.251V374.251H687.5V377.251ZM790.89 375.381C792.613 379.263 794.337 383.145 796.062 387.027C796.804 388.698 797.545 390.369 798.287 392.04C803.87 404.619 803.869 404.62 809.552 417.154C810.398 419.027 811.202 420.919 812 422.813L813.5 426.251L814.582 428.829C816.974 434.455 816.974 434.455 821.812 437.876L824.5 438.251V441.251H792.5V438.251L799.5 436.251C799.052 430.983 797.671 427.011 795.34 422.266C794.5 420.251 794.5 420.251 794.5 417.251H768.5L765.5 426.251L764.312 429.001C763.395 431.542 763.347 433.569 763.5 436.251L769.5 438.251V441.251H746.5V438.251C747.578 437.895 748.657 437.539 749.768 437.172C753.966 435.353 755.467 432.61 757.227 428.524C757.901 427.075 758.576 425.625 759.251 424.176C759.788 422.992 759.788 422.992 760.336 421.785C762.479 417.121 764.765 412.525 767.023 407.915C767.861 406.194 768.698 404.472 769.534 402.751C770.115 401.041 770.894 399.334 771.812 397.438L772.748 395.378C773.578 393.625 774.532 391.932 775.5 390.251C775.541 390.237 775.582 390.223 775.623 390.209C776.672 388.048 777.722 385.887 778.773 383.727C779.219 382.804 779.665 381.88 780.124 380.929C780.746 379.655 780.747 379.655 781.381 378.355C781.743 377.609 782.105 376.862 782.479 376.093C783.5 374.251 783.5 374.251 785.5 372.251H789.5C789.958 373.284 790.417 374.317 790.89 375.381ZM128.5 389.251C126.781 392.552 125.89 394.264 124.599 397.063C124.299 397.714 123.977 398.422 123.619 399.224C122.315 402.139 120.522 406.276 117.5 413.251H139.5C139.5 409.898 138.523 407.591 137.207 404.544L136.25 402.376C136.027 401.851 135.804 401.336 135.58 400.828C135.377 400.368 135.173 399.915 134.967 399.469C134.64 398.763 134.307 398.072 133.962 397.393C133.858 397.19 133.753 396.987 133.647 396.786C133.33 396.182 133 395.588 132.656 395.001C132.506 394.745 132.353 394.49 132.196 394.236C131.144 392.532 129.948 390.885 128.5 389.251ZM285.5 389.251C285.159 389.915 284.823 390.582 284.491 391.249C284.494 391.249 284.497 391.25 284.5 391.251C283.19 396.273 283.034 396.865 281.291 397.959C280.684 399.282 280.086 400.61 279.495 401.944C279.093 402.856 278.703 403.741 278.312 404.626L274.5 413.251H296.5C296.5 412.32 296.498 411.773 296.311 411.025C296.299 410.978 296.288 410.93 296.274 410.881C296.275 410.882 296.276 410.884 296.276 410.886C295.987 409.824 295.324 408.32 293.803 404.872L292.688 402.376L291.607 399.903L290.543 397.509C290.1 396.509 289.633 395.568 289.134 394.661C289.01 394.436 288.883 394.213 288.755 393.991C288.74 393.965 288.725 393.94 288.71 393.914C288.327 393.257 287.925 392.617 287.5 391.982C287.469 391.936 287.438 391.89 287.407 391.845C287.133 391.439 286.848 391.036 286.553 390.633C286.216 390.173 285.866 389.714 285.5 389.251ZM781.5 390.251C780.627 391.124 780.417 391.333 779.164 393.908C779.065 394.881 778.826 395.911 778.5 397.251C778.469 397.256 778.439 397.26 778.408 397.266C777.935 398.928 777.255 400.567 776.515 402.162C776.51 402.192 776.505 402.221 776.5 402.251C776.492 402.249 776.484 402.246 776.476 402.244C776.126 402.994 775.766 403.734 775.406 404.462C774.48 406.083 773.496 407.671 772.5 409.251H772.397C772.304 409.602 772.213 409.959 772.126 410.327C771.914 411.221 771.715 412.176 771.5 413.251H792.5C792.5 412.757 792.499 412.472 792.296 411.816C792.246 411.654 792.182 411.468 792.104 411.251C792.042 411.082 791.972 410.893 791.891 410.682C791.836 410.541 791.777 410.389 791.713 410.226C791.313 409.215 790.712 407.756 789.803 405.556L788.688 402.876L787.607 400.22L786.543 397.665C786.465 397.477 786.387 397.292 786.31 397.111C786.154 396.751 785.998 396.404 785.84 396.07L785.611 395.6C784.593 393.562 783.419 391.963 781.5 390.251Z" fill="white"/>
<path d="M450.125 1.93849C453.146 -0.208148 454.867 -0.222838 458.5 0.250992C459.201 0.952358 459.655 1.40919 459.967 1.82619C460.155 2.07803 460.293 2.31447 460.399 2.584C460.462 2.74324 460.514 2.91371 460.561 3.10451C460.607 3.29511 460.648 3.50618 460.688 3.74709C460.707 3.86751 460.727 3.99534 460.747 4.13185C460.787 4.40478 460.828 4.71217 460.875 5.06349C460.591 7.47986 460.521 8.06389 459.697 9.17384C459.14 10.2123 458.396 11.1226 457.425 12.2188C457.202 12.5703 456.991 12.9232 456.791 13.2783C457.314 13.2897 457.84 13.3019 458.375 13.3135C467.056 13.1399 467.056 13.1399 467.5 13.251L454.5 19.251C454.573 18.8131 454.646 18.3751 454.719 17.9365C454.403 18.8207 454.108 19.7315 453.812 20.6777C453.12 24.0242 452.372 27.3582 451.624 30.6934C451.935 30.6381 452.242 30.5968 452.547 30.5654C454.544 29.2517 456.441 27.9508 458.292 26.4776C459.262 25.3627 460.389 24.4711 461.676 23.8779C462.716 23.2161 463.251 23.1257 465.125 22.8135C465.858 22.9484 466.364 23.0422 466.768 23.1416C467.008 23.1707 467.253 23.2054 467.5 23.251C467.873 23.4955 468.168 23.6913 468.414 23.8613C468.664 24.0161 468.953 24.203 469.312 24.4385C469.458 24.66 469.588 24.8747 469.709 25.0811C469.923 25.3715 470.164 25.7385 470.5 26.251C470.938 28.751 470.938 28.751 470.5 31.251C468.938 33.126 468.938 33.126 466.5 34.251L464.658 34.2676C463.193 34.2647 462.555 34.1865 460 33.876C455.922 33.399 453.54 33.2409 449.5 34.251C448.879 37.045 448.258 39.8391 447.62 42.708C447.58 42.722 447.541 42.7374 447.5 42.751C445.852 45.3564 444.524 47.2836 443.117 50.5264C443.509 53.09 442.697 55.1131 441.562 58.001L440.41 60.9854L439.5 63.251L439.055 63.1026C438.94 63.5401 438.823 63.9894 438.704 64.4512C439.91 63.1277 441.409 62.5792 443.438 61.5635L446.152 60.1768L448.5 59.251C448.419 57.7936 448.361 56.3349 448.312 54.876L448.207 52.4151L448.5 50.251C450.579 48.8652 451.217 48.4403 452.411 48.3096L452.5 48.251C453.107 46.3735 453.568 42.6418 453.883 40.5049C455.234 40.3408 456.503 40.6049 458.5 41.251V47.917C458.831 47.6965 459.164 47.4751 459.5 47.251C463.062 47.001 463.062 47.001 466.5 47.251L468.5 49.251C468.369 50.6931 468.326 51.1259 468.036 51.919C467.92 52.3845 467.791 52.7095 467.601 53.0088C467.568 53.086 467.535 53.1668 467.5 53.251L467.406 53.2813C467.185 53.5628 466.897 53.8538 466.5 54.251C465.833 54.3174 465.167 54.3766 464.5 54.4317V56.251L467.5 57.251C467.188 59.6256 467.187 59.6264 466.5 62.251C463.249 64.4181 462.208 64.5232 458.438 64.501L455.777 64.5166C453.5 64.251 453.5 64.2509 451.5 62.251C451.308 62.2555 451.117 62.2632 450.929 62.2725C450.428 62.4168 449.763 62.5211 448.688 62.6885C444.854 63.365 442.603 64.9609 439.5 67.251C438.181 70.1525 436.862 73.054 435.518 76.0117C435.383 76.5111 435.255 77.0127 435.132 77.5147L435.5 78.251C436.153 78.4687 436.806 78.6857 437.468 78.9063C440.658 74.8815 443.706 73.7031 450.5 74.251C452.5 76.251 452.5 76.251 452.562 78.5635C450.981 82.5649 448.329 84.412 444.5 86.251C440.75 86.751 440.75 86.751 437.5 86.251C436.939 85.8169 436.542 85.5066 436.233 85.251H433.5C433.558 84.729 433.616 84.207 433.674 83.6846C432.569 87.9529 431.143 91.9988 429.5 96.126C427.185 102.092 425.388 107.885 424.5 114.251L426.414 112.782C427.099 112.269 427.788 111.765 428.478 111.268C428.485 111.262 428.493 111.257 428.5 111.251H428.501C429.077 110.835 429.655 110.425 430.235 110.02C430.774 109.225 431.48 108.485 432.431 107.741C434.936 106.222 437.475 104.813 440.062 103.438C441.814 102.474 443.566 101.51 445.316 100.544C445.336 100.534 445.354 100.523 445.373 100.513C446.693 99.6727 448.021 98.8277 449.361 97.9746L448.5 96.251C448.045 89.9939 448.045 89.9933 449.688 87.3135C452.102 85.8979 453.733 86.0485 456.5 86.251C460.276 86.5491 460.277 86.5491 462.5 85.251C469.688 84.7946 469.689 84.7946 472.5 86.376C473.921 89.0402 473.698 91.2861 473.5 94.251L469.5 96.251V98.251L473.5 100.251C473.75 102.563 473.75 102.564 473.5 105.251C471.216 107.901 469.728 108.225 466.25 108.626C461.738 108.175 458.613 107.166 454.5 105.251L453.5 102.251V103.251L450.062 104.126L446.5 105.251L445.5 107.251H441.5L447.5 108.251L448.5 112.251C448.219 112.47 447.945 112.681 447.676 112.882C446.331 113.886 445.125 114.661 443.916 115.227C443.674 115.34 443.432 115.445 443.188 115.541C442.702 115.734 442.21 115.893 441.705 116.021C441.452 116.086 441.196 116.141 440.936 116.189C440.284 116.31 439.603 116.382 438.876 116.408C438.73 116.413 438.583 116.417 438.434 116.418C437.538 116.427 436.57 116.37 435.5 116.251C433.063 115.251 433.062 115.251 431.5 114.251C425.356 118.58 422.559 123.451 420.934 130.818C420.512 133.521 420.176 136.22 419.875 138.938C419.637 140.872 419.399 142.806 419.16 144.739C419.049 145.674 418.939 146.61 418.825 147.573C418.377 151.266 417.849 154.945 417.312 158.626L416.832 161.962L416.5 164.251C417.688 163.855 417.925 163.775 418.749 163.5L418.5 163.251C418.925 162.419 419.37 161.617 419.832 160.842C423.025 154.545 428.535 149.708 434.364 145.638C435.987 144.424 437.669 143.229 439.401 142.018L438.523 139.935C437.299 136.723 437.082 134.667 437.5 131.251C439.266 128.191 441.006 125.745 443.5 123.251C446.5 123.001 446.5 123.001 449.5 123.251C451.638 125.389 451.927 126.384 452.5 129.251L453.875 126.813C455.5 124.251 455.5 124.251 457.5 123.251C462.716 122.807 462.717 122.807 465.375 124.313C467.196 127.45 466.989 129.704 466.5 133.251C464.125 136.188 464.125 136.189 461.5 138.251H459.5L461 139.438C462.5 141.251 462.5 141.251 462.938 143.688C462.364 147.045 461.125 148.151 458.5 150.251C454.847 151.469 452.342 151.642 448.5 151.251C446.852 150.099 446.851 150.098 445.312 148.688L442.5 146.251C440.867 146.383 439.318 146.928 437.847 147.737C437.792 147.772 437.738 147.807 437.684 147.843L438.5 148.251L436.383 150.298L433.625 153.001L430.883 155.673C429.41 157.266 428.411 158.564 427.521 160.173C429.325 158.967 431.382 158.235 433.875 158.188C436.5 159.251 436.5 159.251 438.5 161.251C438.938 164.126 438.938 164.126 438.5 167.251C435.089 171.322 431.512 171.845 426.488 172.368C424.5 172.251 424.5 172.251 422.5 170.251C421.478 169.74 420.456 169.228 419.415 168.708C419.239 168.945 419.062 169.184 418.883 169.425C416.672 173.723 415.357 178.344 415.184 183.985L415.057 187.911C415.017 189.274 414.977 190.638 414.938 192.001C414.894 193.38 414.851 194.759 414.807 196.138C414.701 199.509 414.598 202.88 414.5 206.251H416.5L417.232 204.617L416.5 204.251C417.862 202.586 419.224 200.921 420.595 199.246C422.773 196.159 425.202 193.222 427.5 190.251L429.215 188.017C432.229 184.274 434.82 181.811 439.5 180.251C442.52 180.033 445.479 180.07 448.5 180.251C449.909 183.891 449.368 186.301 448 189.813C445.655 194.656 443.461 196.233 438.5 198.251C434.813 199.188 434.812 199.188 431.5 199.251C429.293 197.755 429.293 197.755 427.5 196.251C419.997 206.157 415.257 214.565 416.5 227.251C416.894 229.736 417.385 232.172 417.938 234.626C418.543 237.45 418.967 240.267 419.375 243.126C420.149 248.285 421.084 253.401 422.084 258.516C422.198 258.161 422.335 257.747 422.5 257.251H424.745C424.82 256.653 424.896 256.06 424.973 255.473C425.476 251.444 425.982 247.394 426.5 243.251H427.052C429.646 231.776 434.259 222.245 444.984 213.106C465.46 198.004 492.886 200.944 514.5 212.251L515.5 214.251C514.877 214.291 514.253 214.33 513.611 214.371C491.287 215.86 471.632 219.78 454.5 235.251C454.019 235.679 453.537 236.108 453.041 236.55C443.165 245.457 435.347 255.764 429.331 267.588C429.118 268.026 428.901 268.463 428.679 268.898C428.561 269.368 428.193 269.969 426.5 270.251V277.251H426.369C426.958 280.175 427.311 283.094 427.625 286.126L427.887 288.403C428.46 293.711 428.574 298.913 428.5 304.251C426.125 304.876 426.125 304.876 423.5 305.251C421.062 302.813 421.044 301.626 420.535 298.263C420.376 297.252 420.218 296.241 420.055 295.2C419.811 293.586 419.811 293.585 419.562 291.938C418.079 282.564 416.429 273.36 413.941 264.192C412.443 258.605 411.708 252.962 410.965 247.228C410.667 244.332 410.667 244.332 409.5 242.251C409.417 239.668 409.395 237.111 409.418 234.528C409.421 233.732 409.425 232.934 409.428 232.113C409.435 230.38 409.444 228.647 409.455 226.914C409.472 224.175 409.483 221.435 409.491 218.695C409.516 210.906 409.551 203.116 409.596 195.326C409.622 190.565 409.639 185.803 409.65 181.042C409.657 179.224 409.667 177.405 409.681 175.587C409.7 173.049 409.707 170.511 409.711 167.974C409.72 167.217 409.728 166.461 409.737 165.682C409.792 163.975 409.82 162.967 409.677 162.148C409.39 161.068 408.774 160.148 407.5 158.251C406.827 156.73 406.209 155.184 405.625 153.626C405.103 152.268 404.565 150.941 403.998 149.632C403.108 148.027 402.358 146.545 401.759 145.09C401.677 145.14 401.591 145.195 401.5 145.251C400.707 143.805 400.229 142.424 399.967 141.059C397.736 135.35 397.27 129.572 397.5 123.251H395.5L395.25 126.063C394.5 129.251 394.5 129.251 393 131.126C389.181 132.844 385.613 132.923 381.5 132.251C378.938 130.626 378.937 130.626 377.5 128.251C377.125 125.126 377.125 125.126 377.5 122.251C380.065 119.686 381.977 119.711 385.5 119.251L383.625 118.501C381.035 116.977 380.376 116.116 379.5 113.251C379.688 110.185 380.039 108.019 381.625 105.376C384.668 103.55 387.043 103.826 390.5 104.251C393.096 106.164 394.232 107.446 395.25 110.501L395.5 112.251L396.875 109.813C398.5 107.251 398.5 107.251 400.5 106.251C406.721 105.799 406.721 105.799 409.438 107.376C411.099 110.307 411.077 111.918 410.5 115.251C407.596 119.898 404.697 122.445 399.5 124.251C400.641 128.293 401.862 132.271 403.229 136.202C404.126 138.162 404.885 140.178 405.688 142.313L406.553 144.534C406.87 145.375 407.168 146.223 407.457 147.073L408.035 148.45C408.484 149.496 408.781 150.181 409.103 150.703C410.222 151.543 411.347 152.386 412.5 153.251C412.472 152.671 412.443 152.089 412.414 151.491C412.379 150.2 412.391 148.933 412.44 147.681C412.645 141.989 413.597 136.575 414.812 130.876L415.459 127.704C415.727 126.406 416.005 125.111 416.288 123.817C418.095 112.684 418.19 103.185 415.518 92.2442C415.512 92.2461 415.506 92.249 415.5 92.251C415.494 92.2021 415.488 92.1534 415.482 92.1045C414.937 89.8884 414.281 87.6116 413.5 85.251L411.355 86.2315C408.33 87.3117 406.013 87.5504 402.812 87.5635L399.926 87.6143L397.5 87.251C395.5 84.2513 395.5 84.2507 395.625 81.751C396.669 78.7693 397.848 77.8761 400.5 76.251L399 75.0635C397.5 73.2512 397.5 73.2507 397.125 70.751C397.573 67.7649 398.151 67.0781 400.5 65.251C402.656 64.8526 402.656 64.8526 405 64.876L407.344 64.8526C409.951 65.3344 410.839 66.2384 412.5 68.251L414.5 66.251H417.5L418.438 64.3135C419.5 62.2513 419.5 62.2508 420.5 61.251C421.085 61.3228 421.67 61.3971 422.254 61.4746C424.006 61.7071 425.756 61.9655 427.5 62.251C428.25 64.5007 428.25 64.5014 428.5 67.251C426.75 69.5633 426.75 69.5636 424.5 71.251H421.5L421.188 73.4385C420.5 76.2507 420.5 76.2513 418.875 78.626C416.933 82.3327 417.668 86.8612 418.944 91.251H419.5L421.5 99.251C423.922 96.8289 424.927 93.9912 426.021 90.9024L426.5 89.5635V89.251H426.617L427.289 87.4561C430.018 80.0744 431.757 73.79 431.117 67.0996C431.026 66.548 430.959 66.0021 430.915 65.4541C430.513 62.8287 429.735 60.1233 428.5 57.251L426.5 54.251L424.672 54.6104C422.234 55.0035 419.971 55.2978 417.5 55.251C414.938 53.3136 414.937 53.3133 413.5 51.251L415.5 46.251L413.5 44.251C413.71 41.523 414.185 39.7319 415.688 37.4385C418.389 35.6685 420.347 35.8568 423.5 36.251C425.375 37.7508 425.375 37.7512 426.5 39.251L428.5 37.251C431.31 36.8908 432.882 36.8678 435.312 38.376C437.129 41.2442 437.099 42.9244 436.5 46.251C434.661 48.2977 432.77 49.6429 430.5 51.251L430.938 52.958C431.369 54.7161 431.761 56.4821 432.141 58.251H432.5C433.528 61.6562 434.15 63.7223 434.431 65.1904C434.453 65.21 434.476 65.2306 434.5 65.251C435.771 61.918 437.042 58.5842 438.312 55.251L439.393 52.419C439.644 51.7589 439.893 51.0978 440.145 50.4375C440.261 50.0463 440.38 49.6527 440.5 49.251C440.54 49.2311 440.579 49.2104 440.619 49.1904C440.913 48.4166 441.209 47.6431 441.502 46.8692C442.138 45.2007 442.781 43.5342 443.434 41.8721C445.577 36.6171 445.577 36.6165 444.5 31.251C443.877 30.0375 443.512 29.3306 443.118 28.7666C441.009 27.007 439.732 26.5825 436.5 26.251C436.317 26.2144 436.143 26.1776 435.976 26.1436C435.35 26.1629 434.6 26.198 433.5 26.251C431.563 25.1261 431.562 25.1258 430.5 23.251C430.075 19.1733 430.187 17.72 432.5 14.251C436.138 13.8391 438.874 14.0604 442.375 15.126L442.646 15.4063C443.9 16.7399 444.528 18.0146 444.854 19.3945C445.508 21.784 445.368 24.4032 445.5 27.251C445.714 27.9339 446.151 28.535 447.092 29.7315C447.307 29.4657 447.592 29.1655 447.976 28.7774C449.562 23.8624 450.993 19.0501 451.403 13.9082C450.784 11.2293 450.581 11.0522 448.5 9.25099C448.063 6.81386 448.063 6.81313 448.5 4.25099C448.786 3.84465 449.066 3.47355 449.344 3.13478C449.565 2.76284 449.823 2.36779 450.125 1.93849ZM341.5 236.251C345.596 236.105 349.53 236.089 353.328 236.251H363.5V237.189C376.538 239.13 388.106 244.045 399.535 254.313C404.748 259.274 408.443 264.824 410.294 271.251H410.5C410.535 271.633 410.569 272.015 410.604 272.396C411.187 274.73 411.533 277.176 411.625 279.751L411.5 282.251C410.959 281.547 410.435 280.839 409.923 280.127C409.722 279.85 409.544 279.603 409.387 279.374C408.185 277.666 407.049 275.925 405.938 274.126C399.17 264.016 387.386 252.213 375.5 248.251L377.773 249.903C388.644 257.913 399.169 266.539 407.5 277.251V279.251C392.707 278.338 380.6 273.425 370.562 262.188C368.444 259.57 366.48 256.85 364.5 254.126C358.304 245.844 350.957 242.261 341.5 238.251V236.251ZM424.542 258.903C424.518 259.019 424.5 259.134 424.5 259.251C424.514 259.135 424.528 259.019 424.542 258.903ZM468.5 214.251C456.302 215.823 447.73 223.535 440.41 232.935C435.917 239.29 432.679 245.868 429.846 253.083C429.63 253.618 429.401 254.147 429.169 254.675C429.434 255.33 429.696 255.882 429.939 256.372C435.619 240.84 446.287 227.582 459.859 217.81C462.669 216.151 465.377 215.169 468.5 214.251ZM347.086 165.89C363.276 165.88 377.467 172.385 389.176 183.493C396.503 192.187 403.066 203.638 402.5 215.251H400.5L399.285 212.794C393.032 200.613 385.23 191.405 375.13 184.164C375.103 184.182 375.075 184.2 375.048 184.218C381.975 189.705 388.137 197.384 392.186 203.527C393.298 205.29 394.384 207.066 395.457 208.853C397.374 212.042 399.418 215.106 401.5 218.188C404.151 222.327 405.391 225.343 405.5 230.251C401.482 228.912 400.878 227.055 398.625 223.501C390.608 211.437 379.807 202.149 368.258 193.56C366.516 192.263 364.791 190.945 363.066 189.626C351.458 180.899 337.154 172.083 322.5 170.251V168.251C329.721 166.351 336.424 165.916 343.875 165.938L347.086 165.89ZM379.5 153.251C382.815 150.191 385.032 149.625 389.5 150.251C393.158 152.291 395.169 153.755 397.5 157.251C397.812 160.313 397.812 160.314 397.5 163.251C393.494 165.921 390.207 166.192 385.5 165.251C381.393 161.658 379.887 158.672 379.5 153.251Z" fill="white"/>
<path fill-rule="evenodd" clip-rule="evenodd" d="M441.396 505.661C446.092 501.582 451.668 501.302 458.5 501.827C462.816 503.388 464.735 506.029 466.766 510.007C467.942 512.923 468.071 514.717 467.5 517.827C466.632 519.763 465.717 521.45 464.621 522.975C464.22 523.872 463.612 524.715 462.625 525.702C462.366 525.839 462.106 525.976 461.846 526.114C461.207 526.702 460.513 527.272 459.75 527.827C455.828 529.034 452.08 529.777 448.292 528.859C447.551 528.776 447.153 528.636 446.284 528.214C446.003 528.1 445.72 527.977 445.438 527.843C442.082 525.578 439.994 523.658 438.5 519.827C438.079 517.358 437.896 515.015 438.025 512.636C438.046 512.062 438.087 511.53 438.162 511.02C438.245 510.297 438.356 509.568 438.5 508.827C438.78 508.45 439.065 508.093 439.352 507.753C439.538 507.447 439.75 507.132 439.992 506.803C440.476 506.392 440.943 506.011 441.396 505.661ZM698.5 503.827H695.5C695.587 506.578 695.694 509.327 695.812 512.077L695.881 514.432C696.019 517.374 696.164 519.57 697.224 522.074C697.325 522.248 697.447 522.458 697.625 522.764C698.962 524.235 700.255 524.913 701.692 525.258C702.065 525.281 702.495 525.303 703 525.327C706.428 525.165 706.428 525.165 708.176 523.343C710.113 519.662 710.068 516.181 710.188 512.077L710.291 509.675C710.364 507.952 710.422 506.229 710.478 504.506C709.61 504.429 708.673 504.218 707.5 503.827V501.827H715.5V503.827L713.5 504.827L713.457 508.589C713.41 510.231 713.362 511.873 713.312 513.514L713.295 515.989C713.132 520.453 712.947 522.285 710.012 525.846L707.5 527.827L706.5 528.827C704.258 529.225 704.258 529.225 701.625 529.202L699.008 529.225C698.593 529.159 698.209 529.08 697.849 528.991C697.401 528.945 696.952 528.891 696.5 528.827C696.219 528.609 695.952 528.396 695.694 528.187C694.622 527.625 693.675 526.86 692.5 525.827C692.542 525.619 692.583 525.412 692.624 525.204C691.852 524.248 691.175 523.177 690.5 521.827C690.417 520.452 690.393 519.072 690.402 517.694L690.412 515.253L690.438 512.702L690.451 510.128C690.463 508.028 690.481 505.927 690.5 503.827H687.5V501.827H698.5V503.827ZM113.5 503.827L110.5 504.827C110.419 507.411 110.359 509.992 110.312 512.577L110.236 514.788C110.192 518.031 110.284 520.411 111.793 523.315C113.491 525.094 113.56 525.165 116.596 525.252C116.703 525.219 116.812 525.184 116.924 525.153C117.44 525.009 118.002 524.883 118.625 524.764C119.623 524.523 120.621 524.281 121.638 524.035C121.802 523.896 121.984 523.741 122.187 523.564C122.717 522.862 123.084 522.26 123.344 521.675C123.677 520.454 123.737 519.298 123.816 517.694L123.943 515.253L124.062 512.702L124.193 510.128L124.5 503.827H121.5V501.827H130.5V503.827H127.5L127.605 507.589C127.634 509.23 127.661 510.873 127.688 512.514L127.764 514.989C127.815 519.242 127.737 522.334 125.411 525.649L125.5 525.827C125.338 525.952 125.176 526.072 125.016 526.188C124.853 526.399 124.682 526.613 124.5 526.827C123.293 527.66 122.188 528.181 121.062 528.503C118.046 529.471 114.859 529.33 111.5 528.827C108.63 527.033 107.009 525.844 105.5 522.827C105.35 521.454 105.252 520.074 105.184 518.694L105.057 516.253L104.938 513.702L104.807 511.128C104.7 509.028 104.6 506.927 104.5 504.827L102.5 503.827V501.827H113.5V503.827ZM655.375 504.514C660.027 500.802 664.8 500.821 670.5 501.827C670.777 501.961 671.048 502.095 671.312 502.23C673.812 503.515 675.708 504.899 677.217 506.827H677.5C677.976 507.571 678.348 508.295 678.637 509.011C678.652 509.041 678.668 509.07 678.684 509.099C678.971 509.637 679.242 510.211 679.5 510.827C679.679 512.47 679.73 513.927 679.629 515.29C679.61 515.939 679.568 516.675 679.5 517.827L679.285 517.612C679.097 518.445 678.837 519.261 678.5 520.085V520.827H678.176C677.729 521.793 677.175 522.78 676.5 523.827C672.077 527.918 668.639 529.198 662.562 529.108C658.175 528.51 655.453 525.908 652.625 522.702C650.925 518.359 650.594 514.414 651.5 509.827C651.83 509.266 652.165 508.741 652.504 508.249C652.585 508.077 652.672 507.915 652.773 507.758C653.397 506.655 654.258 505.637 655.375 504.514ZM375.66 501.967C378.631 501.12 381.853 501.134 385.562 501.857C386.981 501.988 387.837 502.273 389.5 502.827V508.827L387.438 506.952C386.668 506.396 385.944 505.93 385.238 505.529C382.655 504.395 380.412 504.34 377.112 504.3C375.581 504.554 374.643 504.91 373.345 505.84C373.162 506.041 372.958 506.276 372.719 506.55C371.309 509.184 371.003 511.822 371.111 514.581C371.198 515.095 371.286 515.613 371.375 516.139L371.867 519.128C371.921 519.432 371.97 519.705 372.016 519.952C373.185 522.384 374.192 523.509 376.389 525.065C376.688 525.104 377.032 525.148 377.438 525.202C380.179 525.549 382.732 525.827 385.5 525.827V517.827H382.5V515.827H392.5V517.827H390.5V525.827C388.185 527.216 386.134 528.114 384.021 528.6C381.697 529.149 379.289 529.221 376.5 528.827L376.497 528.826C373 527.827 372.999 527.827 370.5 526.827C370.616 526.711 370.732 526.594 370.848 526.478C370.475 526.257 370.115 526.024 369.767 525.773C369.678 525.791 369.589 525.809 369.5 525.827C368.979 525.306 368.509 524.813 368.087 524.333C367.153 523.386 366.302 522.246 365.5 520.827C364.393 516.627 363.982 513.169 365.562 509.077C367.396 506.948 369.214 505.294 371.091 504.072C371.204 503.719 371.338 503.312 371.5 502.827C373.15 502.002 374.291 501.864 375.66 501.967ZM267.5 501.827C270.562 501.327 270.562 501.327 274.5 501.827C276.529 503.58 278.077 505.487 279.734 507.593C281.456 509.771 283.272 511.694 285.25 513.639L286.922 515.284L288.5 516.827L291.5 519.827V503.827H288.5V501.827H296.5V503.827H293.5V528.827L290.5 527.827C290.542 527.649 290.583 527.47 290.625 527.292C289.071 526.363 287.952 525.42 286.371 523.675L284.674 521.821L282.938 519.889C281.791 518.63 280.644 517.371 279.496 516.112C278.993 515.554 278.489 514.996 277.971 514.421C276.522 512.85 275.011 511.338 273.5 509.827V525.827L276.5 527.827H267.5L269.5 525.827C269.777 523.597 269.777 523.596 269.695 521.038L269.676 518.186L269.625 515.202L269.598 512.194C269.574 509.739 269.541 507.285 269.5 504.83C269.499 504.828 269.498 504.827 269.497 504.825C268.838 504.495 268.179 504.166 267.5 503.827V501.827ZM475.5 501.827C479.819 501.285 480.998 501.138 482.355 501.827H482.5L482.553 501.932C483.006 502.185 483.496 502.529 484.139 502.981C485.752 504.615 487.228 506.305 488.688 508.077C489.701 509.249 490.716 510.421 491.73 511.593C492.168 512.116 492.605 512.64 493.056 513.179C494.78 515.145 496.651 516.978 498.5 518.827L499.5 503.827H496.5V501.827H505.5V503.827H501.5V528.827C497.404 525.316 493.525 521.99 489.75 518.202L487.516 515.975C485.675 514.013 484.063 512.014 482.5 509.827C482.446 512.452 482.406 515.076 482.375 517.702L482.324 519.964C482.31 521.491 482.363 523.018 482.436 524.544C482.78 525.417 483.397 526.282 484.5 527.827H476.5L478.5 525.827C478.777 523.597 478.777 523.596 478.695 521.038L478.676 518.186L478.625 515.202L478.598 512.194C478.576 509.906 478.544 507.618 478.507 505.33C477.516 504.834 476.519 504.336 475.5 503.827V501.827ZM591.949 501.534C592.747 501.6 593.488 501.696 594.188 501.827H595.5V502.131C597.125 502.588 598.537 503.31 599.939 504.426C600.414 504.787 600.914 505.241 601.5 505.827C602.054 511.035 602.054 511.035 600.188 513.702C599.711 514.019 599.368 514.245 599.056 514.409C598.34 514.825 597.936 514.827 596.5 514.827L601.676 522.346C603.177 524.388 604.648 526.112 606.5 527.827C603.438 528.389 603.437 528.389 599.5 527.827C596.691 525.143 594.482 522.165 592.5 518.827V516.827H588.574C588.669 518.119 588.769 519.411 588.875 520.702L589.086 523.444C589.236 525.272 589.28 525.794 590.093 526.605C590.385 526.896 590.778 527.228 591.319 527.677C591.378 527.725 591.438 527.776 591.5 527.827H581.5L583.5 525.827C583.87 523.502 583.871 523.502 583.914 520.819L584.031 517.831L584.125 514.702L584.242 511.55C584.289 510.263 584.334 508.975 584.377 507.688L584.5 503.827H581.5V501.827C583.729 501.746 585.958 501.688 588.188 501.639L591.949 501.534ZM734.197 501.563C735.802 501.541 737.277 501.629 738.674 501.827H740.5V502.158C743.734 502.882 746.639 504.275 749.938 506.389C750.53 507.314 750.961 508.239 751.27 509.172C751.346 509.057 751.423 508.942 751.5 508.827C751.527 509.326 751.549 509.802 751.573 510.257C752.029 512.234 751.992 514.259 751.783 516.403C751.727 520.263 750.955 521.356 748.5 524.827L747.711 525.448C747.646 525.499 747.582 525.545 747.521 525.593C747.218 525.881 746.89 526.175 746.531 526.475C746.273 526.591 746.015 526.696 745.759 526.797C745.218 527.088 744.583 527.363 743.5 527.827C743.344 527.749 743.2 527.676 743.066 527.608C739.876 528.303 736.72 528.112 733.188 528.014L730.365 527.973C728.076 527.938 725.788 527.889 723.5 527.827L726.5 526.827V503.827H724.5V501.827C727.021 501.745 729.54 501.686 732.062 501.639L734.197 501.563ZM514.5 501.827C532.849 501.076 532.849 501.076 539.5 505.827C542.488 510.309 542.341 514.579 541.5 519.827C539.972 522.76 538.227 524.946 535.5 526.827C533.356 527.489 531.181 527.768 528.987 527.876C528.434 527.935 527.737 527.973 526.805 528.022C525.328 528.009 523.851 527.985 522.375 527.952L520.09 527.925C518.226 527.901 516.363 527.865 514.5 527.827L516.5 525.827C516.778 523.401 516.778 523.401 516.695 520.6L516.676 517.475L516.625 514.202L516.598 510.905C516.577 508.546 516.546 506.186 516.514 503.827H514.5V501.827ZM93.5 507.827L91.5 504.827C87.9323 504.091 87.9323 504.091 84.5 503.827C84.6095 507.452 84.7403 511.077 84.875 514.702L84.9688 517.831L85.0859 520.819C85.1174 521.73 85.1493 522.641 85.1816 523.58C85.2993 526.026 85.2988 526.026 87.5 527.827H76.5L78.5 525.827C78.8705 523.502 78.8705 523.502 78.9141 520.819L79.0312 517.831L79.125 514.702L79.2422 511.55C79.3366 508.976 79.4222 506.401 79.5 503.827C74.6813 504.2 74.6813 504.2 70.5625 506.389L69.5 507.827V501.827H93.5V507.827ZM149.5 503.827H146.5C146.61 507.452 146.74 511.077 146.875 514.702L146.969 517.831L147.086 520.819C147.117 521.73 147.149 522.641 147.182 523.58C147.299 526.026 147.299 526.026 149.5 527.827H138.5L141.5 526.827V503.827H139.5V501.827H149.5V503.827ZM158.5 501.827C161.57 501.396 163.53 501.156 166.5 501.827C168.565 503.54 170.055 505.398 171.691 507.522C174.184 510.699 177.077 513.383 179.996 516.163C181.5 517.827 181.5 517.827 181.5 519.827H183.5V503.827H180.5V501.827H188.5V503.827L186.5 504.827L185.5 527.827C182.164 526.159 180.634 525.203 178.152 522.675L176.318 520.821L174.438 518.889L172.545 516.97C171.382 515.789 170.221 514.606 169.062 513.421C167.552 511.879 166.029 510.351 164.5 508.827C164.587 511.62 164.694 514.41 164.812 517.202L164.881 519.608C164.978 521.689 165.23 523.761 165.5 525.827C165.785 526.017 166.07 526.208 166.356 526.398L168.5 526.827V527.827H159.5V525.827H162.5L161.5 504.827L158.5 503.827V501.827ZM212.5 501.827C213.175 503.407 213.84 504.991 214.5 506.577L215.625 509.249C215.759 509.642 215.87 509.976 215.966 510.273C216.436 511.416 216.904 512.559 217.375 513.702L218.77 517.12L220.117 520.382C220.169 520.507 220.22 520.632 220.271 520.757C220.345 520.779 220.422 520.803 220.5 520.827C221.687 523.263 221.687 523.264 222.498 525.822C222.5 525.825 222.503 525.829 222.505 525.832L224.5 527.827H214.5L216.5 526.827L215 520.827H214.5V518.827L204.5 519.827L202.5 526.827L204.5 527.827H196.5L198.5 526.827C199.182 524.832 199.844 522.83 200.5 520.827C201.966 517.499 203.546 514.228 205.125 510.952L206.398 508.288C206.44 508.201 206.482 508.113 206.523 508.026C206.516 507.962 206.509 507.895 206.5 507.827C207.937 504.577 207.938 504.577 209.5 501.827H212.5ZM246.5 501.827C248.214 505.148 249.855 508.469 251.409 511.827H251.5L251.606 512.253C253.013 515.31 254.344 518.401 255.592 521.553C256.241 522.865 256.837 524.272 257.498 525.824C258.022 526.463 258.79 526.887 260.5 527.827H249.5L251.5 526.827L251.487 526.798C251.162 526.065 250.836 525.332 250.5 524.577C250.218 523.801 250.016 523.243 249.871 522.754C249.501 521.588 249.5 520.981 249.5 518.827L239.5 519.827L237.5 526.827L239.5 527.827H231.5V525.827H234.5L234.75 523.905C234.902 523.281 235.071 522.667 235.253 522.059C235.335 521.651 235.417 521.24 235.5 520.827C235.536 520.863 235.57 520.898 235.604 520.932C236.419 518.4 237.466 515.985 238.562 513.514L239.416 511.559C239.819 510.638 240.225 509.718 240.631 508.798C240.837 508.153 241.096 507.635 241.5 506.827L241.586 506.913C243.376 502.949 243.511 502.816 244.5 501.827H246.5ZM316.5 503.827H313.5V525.827C314.25 525.798 314.928 525.768 315.546 525.741C316.458 525.666 317.375 525.591 318.312 525.514C319.358 525.389 320.171 525.287 320.898 525.119C322.091 524.764 323.097 524.189 324.546 523.198C324.861 522.746 325.176 522.293 325.5 521.827C325.561 522.032 325.618 522.226 325.673 522.409C325.933 522.225 326.21 522.033 326.5 521.827L326.133 524.03C326.484 525.436 326.397 525.964 325.869 527.077L325.5 527.827H305.5L307.5 525.827C307.871 523.502 307.871 523.502 307.914 520.819L308.031 517.831L308.125 514.702L308.242 511.55C308.325 509.305 308.398 507.061 308.468 504.816L305.5 503.827V501.827H316.5V503.827ZM354.5 506.827L351.5 504.827C348.507 504.279 345.537 504.091 342.5 503.827V513.731C343.944 513.594 344.558 513.535 345.653 513.43C346.939 513.251 348.222 513.051 349.5 512.827L350.5 510.827H352.5V518.827H350.5L349.5 515.827H342.5V525.827L350.117 525.339C352.519 525.076 352.819 525.043 353.954 522.887C354.116 522.58 354.295 522.228 354.5 521.827L356.5 522.827L355.5 527.827H334.5L338.5 525.827V503.827H335.5V501.827H354.5V506.827ZM570.5 506.827H568.5L567.5 504.827C565.374 504.36 565.374 504.36 562.938 504.202L558.5 503.827V513.827H566.5V510.827H568.5V518.827H566.5V515.827C562.398 516.283 562.073 516.319 558.5 516.716V525.827L566.117 525.339C568.862 525.039 568.862 525.039 570.5 521.827H572.5L571.5 527.827H551.5V525.827H554.5V503.827H551.5V501.827H570.5V506.827ZM624.5 503.827H620.5V513.827H634.5V503.827H631.5V501.827H641.5V503.827H639.5V526.827L642.5 527.827H631.5L633.5 525.827C633.962 523.394 633.962 523.394 634.125 520.702L634.5 515.827H620.559C620.642 517.269 620.726 518.718 620.812 520.202L620.988 523.225L621.5 525.827L624.5 527.827H613.5L615.5 525.827C615.777 523.597 615.777 523.596 615.695 521.038L615.676 518.186L615.625 515.202L615.598 512.194C615.574 509.738 615.541 507.283 615.5 504.827L613.5 503.827V501.827H624.5V503.827ZM669.5 505.827C666.659 504.407 664.645 504.512 661.5 504.827C659.003 506.155 659.003 506.155 657.5 508.827C656.887 511.821 656.63 514.777 656.5 517.827H656.356C656.401 518.154 656.449 518.487 656.5 518.827C658.035 523.179 658.035 523.18 661.5 525.827C667.133 526.439 667.133 526.439 671.938 524.014C673.26 522.163 674.07 520.221 674.5 518.202V516.827L674.25 513.577C673.439 509.52 672.68 508.332 669.5 505.827ZM731.5 525.827H740.5C740.63 525.74 740.755 525.654 740.878 525.571C740.767 525.358 740.643 525.113 740.5 524.827L742.438 523.514C744.767 521.915 744.768 521.914 745.5 518.827C745.592 517.329 745.63 515.827 745.625 514.327C745.626 513.899 745.627 513.47 745.629 513.038C745.269 511.056 744.906 509.06 744.537 507.032C740.63 503.827 740.023 503.827 731.5 503.827V525.827ZM522.5 524.827L529.824 525.559C530.231 525.417 530.671 525.243 531.171 525.034C532.217 523.801 533.263 522.568 534.309 521.335C535.588 519.821 535.588 519.821 536.5 517.827C536.731 517.942 536.962 518.057 537.192 518.173C537.309 517.776 537.41 517.358 537.5 516.911V512.827C537.552 512.81 537.602 512.793 537.652 512.776C537.226 510.334 536.452 508.929 534.808 507.156C531.709 505.929 531.444 505.799 529.5 504.827V504.003C529.038 503.916 528.566 503.861 528.073 503.827H521.5L522.5 524.827ZM450.769 503.655C450.701 503.663 450.634 503.67 450.566 503.679C447.764 505.023 447.263 505.606 444.5 508.827C444.123 513.211 444.228 517.011 445.625 521.202C445.856 521.896 446.087 522.59 446.323 523.298C446.585 523.66 446.864 524.021 447.169 524.383C447.609 524.529 448.051 524.677 448.5 524.827C450.228 524.895 451.958 524.912 453.688 524.889L456.418 524.862C457.264 524.848 457.416 524.845 458.024 524.835C458.075 524.809 458.125 524.782 458.177 524.756C458.592 524.099 459.011 523.438 459.438 522.764C460.857 520.307 461.588 518.144 462.022 515.726C462.069 513.875 461.853 511.943 461.5 509.827C460.282 507.796 459.382 506.477 457.97 505.356C457.83 505.496 457.675 505.651 457.5 505.827L450.5 503.827C450.59 503.768 450.68 503.711 450.769 503.655ZM413.5 511.827C415.175 512.113 416.844 512.445 418.5 512.827V517.827C416.844 518.209 415.175 518.541 413.5 518.827C412.5 517.827 412.5 517.827 412.375 515.327C412.5 512.827 412.5 512.827 413.5 511.827ZM208.5 508.827C208.357 509.257 208.118 509.686 207.867 510.118C207.277 511.38 206.944 512.397 205.5 516.827H212.5C212.5 513.623 211.757 511.733 210.5 508.827H208.5ZM243.5 508.827C243.309 510.804 242.787 512.159 241.871 513.39C241.791 513.6 241.71 513.81 241.629 514.019C241.565 514.184 241.503 514.35 241.438 514.514L240.5 516.827H247.5L247.168 515.675C246.91 514.76 246.828 514.374 246.5 512.827C246.524 512.803 246.548 512.778 246.572 512.754C246.085 511.541 245.357 510.501 244.148 509.393C243.946 509.207 243.731 509.018 243.5 508.827ZM588.5 514.827C591.312 515.014 591.312 515.014 594.5 514.827C594.978 514.524 595.334 514.298 595.618 514.099L595.619 514.098C595.718 514.029 595.808 513.963 595.892 513.898C595.898 513.894 595.903 513.889 595.909 513.885C596.075 513.755 596.215 513.63 596.346 513.492C596.353 513.484 596.361 513.476 596.368 513.468C596.541 513.282 596.699 513.071 596.884 512.795C597.055 512.539 597.251 512.228 597.5 511.827C597.928 508.972 597.906 507.482 596.375 505.014C596.134 504.862 595.916 504.726 595.715 504.602C595.32 504.36 594.988 504.171 594.662 504.027L594.661 504.026C594.479 503.946 594.299 503.881 594.111 503.827H588.5V514.827Z" fill="white"/>
</svg>
