<?xml version="1.0" encoding="UTF-8"?>
<svg width="190px" height="56px" viewBox="0 0 190 56" version="1.1" xmlns="http://www.w3.org/2000/svg" xmlns:xlink="http://www.w3.org/1999/xlink">
    <title>Group 21</title>
    <defs>
        <polygon id="path-1" points="0 55.09 189.59 55.09 189.59 0 0 0"></polygon>
    </defs>
    <g id="Symbols" stroke="none" stroke-width="1" fill="none" fill-rule="evenodd">
        <g id="Nav---CordeelEU" transform="translate(-30.000000, -25.000000)">
            <g id="Group-21" transform="translate(30.000000, 25.000000)">
                <path d="M67.2796,29.5831 C67.1806,32.0961 66.8636,33.1841 65.8746,34.1741 C64.4496,35.6381 62.5896,36.0141 56.6736,36.0141 C52.0626,36.0141 50.1036,35.6981 48.6196,34.6091 C47.1546,33.6001 46.6806,31.9581 46.6806,27.9801 C46.6806,24.3591 47.1356,22.7561 48.4616,21.6681 C49.8856,20.5001 51.8646,20.1441 56.9696,20.1441 C61.9766,20.1441 64.1726,20.5201 65.5976,21.7071 C66.8046,22.6571 67.2206,23.8441 67.3196,26.6741 L61.5806,26.6741 C61.3826,24.9531 60.2746,24.3791 56.9506,24.3791 C53.0326,24.3791 52.2996,24.9921 52.2996,28.1381 C52.2996,30.1171 52.6166,30.8891 53.6456,31.2851 C54.3186,31.5821 55.5256,31.7401 57.0296,31.7401 C60.3336,31.7401 61.3036,31.2851 61.5606,29.5631 L67.2796,29.5831 Z" id="Fill-1" fill="#000000"></path>
                <path d="M75.373,28.2177 C75.373,30.2167 75.63,30.8887 76.639,31.3047 C77.332,31.6217 78.618,31.7797 80.439,31.7797 C84.713,31.7797 85.445,31.2457 85.445,28.0597 C85.445,26.0217 85.129,25.2887 84.08,24.8737 C83.387,24.5967 82.042,24.4187 80.439,24.4187 C76.125,24.4377 75.373,25.0117 75.373,28.2177 M89.126,21.5687 C90.649,22.6767 91.065,24.0617 91.065,27.8417 C91.065,31.9777 90.689,33.3827 89.304,34.5297 C87.879,35.7177 85.999,36.0337 80.419,36.0337 C74.779,36.0337 72.899,35.7177 71.475,34.5297 C70.07,33.3827 69.714,31.9777 69.714,27.6237 C69.714,24.0817 70.149,22.6577 71.653,21.5687 C73.058,20.5397 75.254,20.2037 80.379,20.2037 C85.564,20.2037 87.721,20.5397 89.126,21.5687" id="Fill-3" fill="#000000"></path>
                <path d="M99.2968,20.5795 L99.2968,22.8355 L99.5938,22.8355 C100.6428,20.9155 102.2448,20.1835 105.3918,20.1835 C109.9428,20.1835 111.4668,21.7075 111.4668,26.2385 L111.4668,27.2485 L106.1438,27.2485 C106.1438,25.0125 105.5098,24.4185 103.1748,24.4185 C101.8888,24.4185 100.8598,24.7945 100.3058,25.5065 C99.7718,26.2385 99.6138,27.0705 99.6138,29.4055 L99.6138,35.6585 L93.9738,35.6585 L93.9738,20.5795 L99.2968,20.5795 Z" id="Fill-5" fill="#000000"></path>
                <path d="M119.263,27.9407 C119.263,31.2457 119.896,31.7597 124.151,31.7597 C126.228,31.7597 127.752,31.5027 128.385,31.0677 C129.019,30.6517 129.256,29.8597 129.256,28.0987 C129.256,24.9727 128.524,24.3987 124.507,24.3987 C120.035,24.3987 119.263,24.9127 119.263,27.9407 L119.263,27.9407 Z M134.856,35.6387 L129.533,35.6387 L129.533,33.6597 L129.256,33.6597 C128.168,35.4797 126.664,36.0147 122.587,36.0147 C118.511,36.0147 116.572,35.5987 115.266,34.4317 C114.019,33.2837 113.643,31.7597 113.643,27.9997 C113.643,24.1807 114.257,22.3607 115.84,21.3117 C117.205,20.4217 118.768,20.1637 122.667,20.1637 C126.624,20.1637 127.93,20.6787 128.999,22.5777 L129.216,22.5777 L129.216,14.3857 L134.856,14.3857 L134.856,35.6387 Z" id="Fill-7" fill="#000000"></path>
                <path d="M152.5071,26.2389 C152.4671,25.0519 152.4081,24.7749 152.0521,24.4179 C151.5371,23.8839 150.3901,23.6469 148.1731,23.6469 C144.3741,23.6469 143.4841,24.1219 143.4241,26.2389 L152.5071,26.2389 Z M158.0481,30.8299 C157.6321,35.0049 155.5541,36.0139 147.5011,36.0139 C143.1271,36.0139 141.0691,35.6379 139.7041,34.6089 C138.2401,33.5009 137.7851,31.9969 137.7851,28.1389 C137.7851,24.1019 138.2401,22.5979 139.8231,21.4899 C141.2871,20.4609 143.1671,20.1439 148.0741,20.1439 C153.1801,20.1439 154.9611,20.4609 156.3261,21.5689 C157.6721,22.6769 158.1661,24.3789 158.1661,27.7819 C158.1661,27.9799 158.1661,28.6729 158.1271,29.3059 L143.4041,29.3059 C143.4041,30.8299 143.5631,31.3439 144.0971,31.7599 C144.7101,32.1949 145.8781,32.3929 147.9161,32.3929 C151.5181,32.3929 152.1901,32.1359 152.4081,30.7899 L158.0481,30.7899 L158.0481,30.8299 Z" id="Fill-9" fill="#000000"></path>
                <path d="M175.3821,26.2389 C175.3421,25.0519 175.2831,24.7749 174.9271,24.4179 C174.4121,23.8839 173.2651,23.6469 171.0481,23.6469 C167.2491,23.6469 166.3591,24.1219 166.2991,26.2389 L175.3821,26.2389 Z M180.9231,30.8299 C180.5071,35.0049 178.4291,36.0139 170.3761,36.0139 C166.0021,36.0139 163.9441,35.6379 162.5791,34.6089 C161.1151,33.5009 160.6601,31.9969 160.6601,28.1389 C160.6601,24.1019 161.1151,22.5979 162.6981,21.4899 C164.1621,20.4609 166.0421,20.1439 170.9491,20.1439 C176.0551,20.1439 177.8361,20.4609 179.2011,21.5689 C180.5471,22.6769 181.0411,24.3789 181.0411,27.7819 C181.0411,27.9799 181.0411,28.6729 181.0021,29.3059 L166.2791,29.3059 C166.2791,30.8299 166.4381,31.3439 166.9721,31.7599 C167.5851,32.1949 168.7531,32.3929 170.7911,32.3929 C174.3931,32.3929 175.0651,32.1359 175.2831,30.7899 L180.9231,30.7899 L180.9231,30.8299 Z" id="Fill-11" fill="#000000"></path>
                <mask id="mask-2" fill="white">
                    <use xlink:href="#path-1"></use>
                </mask>
                <g id="Clip-14"></g>
                <polygon id="Fill-13" fill="#000000" mask="url(#mask-2)" points="183.95 35.638 189.59 35.638 189.59 14.386 183.95 14.386"></polygon>
                <path d="M19.6892,35.7768 L28.6732,35.7768 C32.6302,35.7768 35.8362,32.5708 35.8362,28.6138 L35.8362,20.5798 L19.6892,20.5798 L19.6892,35.7768 Z M28.6532,-0.0002 L19.6892,-0.0002 L19.6892,15.2168 L35.8162,15.2168 L35.8162,7.1438 C35.8162,3.2058 32.6112,-0.0002 28.6532,-0.0002 L28.6532,-0.0002 Z M0.0002,7.1438 L0.0002,28.6138 C0.0002,32.5708 3.2052,35.7768 7.1432,35.7768 L16.0882,35.7768 L16.0882,-0.0002 L7.1432,-0.0002 C3.2052,-0.0002 0.0002,3.2058 0.0002,7.1438 L0.0002,7.1438 Z" id="Fill-15" fill="#D0021B" mask="url(#mask-2)"></path>
                <path d="M125.3182,45.374 C125.3582,43.435 124.6652,42.188 122.1912,42.188 L118.6102,42.188 C116.8092,42.188 115.5232,42.683 115.5032,44.385 L115.5032,46.304 C115.4832,48.698 116.3342,49.431 118.4912,49.431 L121.8752,49.431 C124.3882,49.431 125.2982,48.421 125.2982,46.64 L125.2982,45.374 L125.3182,45.374 Z M127.0592,51.31 C127.0592,54.457 124.3092,55.09 122.1122,55.09 L118.1552,55.09 C114.9292,55.09 114.0782,53.309 114.0782,51.983 L114.0782,51.647 L115.7012,51.647 L115.7012,51.924 C115.7012,53.269 117.0862,53.665 118.7292,53.665 L120.4502,53.665 C123.9132,53.665 125.3182,53.626 125.3182,50.816 L125.3182,49.272 L125.2782,49.272 C124.9022,50.262 124.1902,50.895 121.7562,50.895 L118.1352,50.895 C115.2062,50.895 113.7622,49.411 113.7622,46.739 L113.7622,44.998 C113.7622,41.218 116.4932,40.783 118.4522,40.783 L122.1922,40.783 C123.5172,40.783 124.8432,41.12 125.3972,42.802 L125.4372,42.802 L125.4372,40.941 L127.0592,40.941 L127.0592,51.31 Z" id="Fill-16" fill="#000000" mask="url(#mask-2)"></path>
                <path d="M130.5225,40.9217 L132.1455,40.9217 L132.1455,42.4257 L132.1845,42.4257 C132.8375,41.0797 134.1635,40.7437 135.3705,40.7437 L137.0325,40.7437 C140.3175,40.7437 141.4055,41.8117 141.4055,44.3647 L141.4055,45.6117 L139.7835,45.6117 L139.7835,45.1567 C139.7835,42.5837 139.2495,42.1687 136.1225,42.1687 L135.0345,42.1687 C133.1745,42.1687 132.2835,43.3557 132.2835,44.7017 L132.2835,51.3107 L130.5225,51.3107 L130.5225,40.9217 Z" id="Fill-17" fill="#000000" mask="url(#mask-2)"></path>
                <path d="M155.3961,45.097 C155.3961,42.663 153.9711,42.208 151.9331,42.208 L148.3711,42.208 C146.3331,42.208 144.9081,42.683 144.9081,45.097 L144.9081,47.175 C144.9081,49.609 146.3331,50.064 148.3711,50.064 L151.9331,50.064 C153.9711,50.064 155.3961,49.589 155.3961,47.175 L155.3961,45.097 Z M143.1271,44.998 C143.1271,41.575 145.5611,40.763 148.8861,40.763 L151.3991,40.763 C154.7231,40.763 157.1571,41.555 157.1571,44.998 L157.1571,47.293 C157.1571,50.717 154.7231,51.528 151.3991,51.528 L148.8861,51.528 C145.5611,51.528 143.1271,50.737 143.1271,47.293 L143.1271,44.998 Z" id="Fill-18" fill="#000000" mask="url(#mask-2)"></path>
                <path d="M171.3256,49.5493 L171.2856,49.5493 C170.6326,51.1523 169.2676,51.5083 167.0716,51.5083 L164.4396,51.5083 C161.1546,51.5083 160.1056,49.8463 160.1056,47.9863 L160.1056,40.9413 L161.8666,40.9413 L161.8666,47.5503 C161.8666,49.0743 162.3026,50.0833 165.7056,50.0833 L166.1606,50.0833 C170.2566,50.0833 171.2066,49.3123 171.2066,46.8583 L171.2066,40.9413 L172.9676,40.9413 L172.9676,51.3503 L171.3456,51.3503 L171.3456,49.5493 L171.3256,49.5493 Z" id="Fill-19" fill="#000000" mask="url(#mask-2)"></path>
                <path d="M187.8091,45.1762 C187.8091,43.1582 187.1561,42.1882 184.6821,42.1882 L181.2001,42.1882 C178.8851,42.1882 178.0141,43.3952 178.0141,45.1962 L178.0141,47.1752 C178.0141,49.6682 179.5571,50.0642 181.4171,50.0642 L184.5441,50.0642 C186.5821,50.0642 187.8091,49.6092 187.8091,47.2142 L187.8091,45.1762 Z M176.2531,40.9222 L177.8951,40.9222 L177.8951,42.5842 L177.9351,42.5842 C178.4491,41.3172 179.8741,40.7632 181.4171,40.7632 L184.7421,40.7632 C187.2351,40.7632 189.5501,41.5552 189.5501,45.1562 L189.5501,46.9972 C189.5501,50.3602 188.0661,51.5082 184.4451,51.5082 L181.1011,51.5082 C179.2411,51.5082 178.4101,51.0332 178.0341,49.9652 L177.9941,49.9652 L177.9941,54.9912 L176.2331,54.9912 L176.2331,40.9222 L176.2531,40.9222 Z" id="Fill-20" fill="#000000" mask="url(#mask-2)"></path>
            </g>
        </g>
    </g>
</svg>