<svg xmlns="http://www.w3.org/2000/svg" viewBox="0 0 590.13 97.1"><defs><style>.cls-1{fill:#fff;}.cls-2{fill:#189dd8;}</style></defs><g id="Laag_2" data-name="Laag 2"><g id="Layer_1" data-name="Layer 1"><path class="cls-1" d="M0,96.3V.81H23.47V75.37h40.1V96.3Z"/><path class="cls-1" d="M77.25,96.3V.81h64.92V21.72H100.72v16h35.41V58.61H100.72V75.37h41.45V96.3Z"/><path class="cls-1" d="M224.38,96.3V50.56l-13.55,23.6h-15l-13.54-23.6V96.3H158.8V.81h23.07l21.46,42.11L224.79.81h23.07V96.3Z"/><path class="cls-2" d="M307.44,97.1A34,34,0,0,1,283,87.18c-9-9-9-18.38-9-38.63s0-29.64,9-38.63A34.07,34.07,0,0,1,307.44,0c17.17,0,29.91,10.46,33.14,28.43H330.11c-2.55-11.66-10.73-19.31-22.67-19.31A23,23,0,0,0,291,15.82c-6,6.17-6.71,12.74-6.71,32.73s.67,26.56,6.71,32.73A23,23,0,0,0,307.44,88c11.94,0,20.39-7.65,22.94-19.32h10.2C337.49,86.65,324.48,97.1,307.44,97.1Z"/><path class="cls-2" d="M411,87.18a35,35,0,0,1-48.83,0c-9-9-9-18.38-9-38.63s0-29.64,9-38.63a35,35,0,0,1,48.83,0c9,9,9,18.38,9,38.63S419.93,78.19,411,87.18ZM403,16a23.31,23.31,0,0,0-33,0c-6,6.17-6.71,12.6-6.71,32.59S364,75,370,81.15a23.31,23.31,0,0,0,33,0c6-6.18,6.71-12.62,6.71-32.6S409.07,22.13,403,16Z"/><path class="cls-2" d="M498.13,87.18a35,35,0,0,1-48.83,0c-9-9-9-18.38-9-38.63s0-29.64,9-38.63a35,35,0,0,1,48.83,0c9,9,9,18.38,9,38.63S507.12,78.19,498.13,87.18ZM490.21,16a23.31,23.31,0,0,0-33,0c-6,6.17-6.71,12.6-6.71,32.59s.67,26.42,6.71,32.6a23.31,23.31,0,0,0,33,0c6-6.18,6.71-12.62,6.71-32.6S496.25,22.13,490.21,16Z"/><path class="cls-2" d="M531.11,96.3V.81h10.2V87.18h48.82V96.3Z"/></g></g></svg>