<svg id="Layer_1" data-name="Layer 1" xmlns="http://www.w3.org/2000/svg" viewBox="0 0 620 80"><defs><style>.cls-1{fill:none;}.cls-2{fill:#f78e1e;}</style></defs><title>Artboard 1</title><path class="cls-1" d="M585.67,51.43a2.41,2.41,0,0,1-1.28,1.41,11.41,11.41,0,0,1-3.52.35l-6.86,0,1.34-3.08h6.39a13.8,13.8,0,0,1,4,.29C586,50.56,585.81,51.12,585.67,51.43Z"/><path class="cls-1" d="M587.63,45.32a2.36,2.36,0,0,1-1.3,1.42,15.23,15.23,0,0,1-4,.33h-5.68l1.21-2.8h7.19c2.08,0,2.52.43,2.6.55S587.79,45,587.63,45.32Z"/><path class="cls-1" d="M535.49,45.32a2.42,2.42,0,0,1-1.3,1.42,14,14,0,0,1-4,.33h-5.69l1.2-2.8h7.21c2.08,0,2.51.43,2.6.55S535.63,45,535.49,45.32Z"/><path class="cls-1" d="M533.51,51.45a2.36,2.36,0,0,1-1.28,1.39,11.25,11.25,0,0,1-3.5.35l-6.86,0,1.32-3.08h6.42a13.68,13.68,0,0,1,4,.29C533.86,50.56,533.67,51.12,533.51,51.45Z"/><polygon points="618.19 78.2 618.19 75.16 507.14 75.16 506.19 78.2 618.19 78.2"/><polygon points="618.19 70.64 618.19 59.66 512 59.66 508.55 70.64 618.19 70.64"/><path class="cls-2" d="M505.81,73.36,503.73,80H620V73.36ZM618.19,78.2h-112l.95-3H618.19Z"/><path class="cls-2" d="M510.67,57.85l-4.57,14.6H620V57.85Zm107.52,12.8H508.55l3.45-11H618.19Z"/><path class="cls-2" d="M596.3,55.56l3-2.81h12.62l.56,2.81h4.43L614,41.94H606.7L592.22,55.56Zm13.62-13,1.82,9.14H600.3Z"/><path class="cls-2" d="M581.35,55.56a18.57,18.57,0,0,0,6.59-.87,5.18,5.18,0,0,0,2.92-2.87,1.85,1.85,0,0,0,.1-1.67c-.36-.59-1.37-1-2.94-1.1l-.71-.06.4-.92L588,48c2.67-.3,4.37-1.27,5.07-2.89.78-1.83.06-2.25-.21-2.4-.59-.34-2.08-.75-5.95-.75H573.61l-5.88,13.62Zm-4.15-12.3h7.88c1.9,0,3,.32,3.45,1a1.48,1.48,0,0,1,.05,1.47,3.33,3.33,0,0,1-1.89,2,15,15,0,0,1-4.34.4h-7.24Zm-2.53,5.85h7.08c3.19,0,4,.21,4.44.39s1.09.79.42,2.34a3.43,3.43,0,0,1-1.85,1.95,11.82,11.82,0,0,1-3.87.43l-1.86,0h-6.58Z"/><path class="cls-2" d="M555.47,55.56,569.7,41.94h-4.1L557,50.1c-.76.73-1.72,1.7-2.94,3L553,54.22h-.83l0-.47c-.16-1.9-.31-3.19-.45-3.93l-1.55-7.88h-4.45L548,55.56Z"/><path class="cls-2" d="M538.71,51.82a1.82,1.82,0,0,0,.1-1.67c-.35-.59-1.37-1-2.94-1.1l-.73-.06.43-.92.31-.09c2.7-.3,4.36-1.25,5.07-2.89.78-1.83.06-2.25-.21-2.41-.58-.33-2.08-.74-6-.74H521.46l-5.88,13.62H529.2a18.57,18.57,0,0,0,6.59-.87A5.15,5.15,0,0,0,538.71,51.82Zm-13.66-8.56h7.88c1.9,0,3,.32,3.45,1a1.48,1.48,0,0,1,0,1.47,3.33,3.33,0,0,1-1.89,2,15,15,0,0,1-4.34.4H523Zm9.41,8.58a3.37,3.37,0,0,1-1.85,1.95,11.82,11.82,0,0,1-3.87.43l-1.86,0h-6.57l2.21-5.13h7.08c3.23,0,4.08.22,4.44.39S535.13,50.29,534.46,51.84Z"/><path d="M609.92,42.58l-9.62,9.14h11.44Zm-.64,2,1.21,6.1h-7.63Z"/><path d="M614.84,40.92h-8.55L589.63,56.58h7.08l2.95-2.81H611l.56,2.81h6.53ZM592.22,55.56,606.7,41.94H614l2.85,13.62h-4.43l-.56-2.81H599.25l-3,2.81Z"/><path d="M586.19,49.51c-.38-.2-1.24-.39-4.45-.39h-7.07l-2.21,5.12H579l1.87,0a11.78,11.78,0,0,0,3.87-.43,3.41,3.41,0,0,0,1.84-1.95C587.28,50.28,586.62,49.7,586.19,49.51Zm-4.45.62a13.8,13.8,0,0,1,4,.29c.25.14.06.7-.08,1a2.41,2.41,0,0,1-1.28,1.41,11.41,11.41,0,0,1-3.52.35l-6.86,0,1.34-3.08Z"/><path d="M588.53,44.25c-.45-.68-1.56-1-3.46-1H577.2l-2.08,4.83h7.23a14.91,14.91,0,0,0,4.33-.4,3.36,3.36,0,0,0,1.91-2A1.52,1.52,0,0,0,588.53,44.25Zm-6.18,2.82h-5.68l1.21-2.8h7.19c2.08,0,2.52.43,2.6.55s.12.17,0,.5a2.36,2.36,0,0,1-1.3,1.42A15.23,15.23,0,0,1,582.35,47.07Z"/><path d="M593.4,41.8c-1-.59-3.13-.88-6.46-.88h-14l-6.76,15.66h15.18a19.71,19.71,0,0,0,7-.94,6.2,6.2,0,0,0,3.48-3.41,2.49,2.49,0,0,0-1.37-3.71,5.52,5.52,0,0,0,3.61-3C595,43.29,594.21,42.27,593.4,41.8Zm-.3,3.29c-.7,1.62-2.4,2.59-5.07,2.89l-.32.09-.4.92.71.06c1.57.13,2.58.51,2.94,1.1a1.85,1.85,0,0,1-.1,1.67,5.18,5.18,0,0,1-2.92,2.87,18.57,18.57,0,0,1-6.59.87H567.73l5.88-13.62h13.33c3.87,0,5.36.41,5.95.75C593.16,42.84,593.88,43.26,593.1,45.09Z"/><path d="M565.19,40.92l-8.89,8.44c-.78.74-1.75,1.72-3,3l-.31.32c-.13-1.43-.25-2.41-.38-3.06l-1.71-8.7h-6.51l2.73,15.66h8.75l16.36-15.66ZM548,55.56l-2.38-13.62h4.45l1.55,7.88c.14.74.29,2,.45,3.93l0,.47H553l1.11-1.16c1.22-1.26,2.18-2.23,2.94-3l8.6-8.16h4.1L555.47,55.56Z"/><path d="M534,49.51c-.35-.18-1.21-.39-4.43-.39h-7.08l-2.23,5.12h6.59l1.84,0a12,12,0,0,0,3.89-.43,3.38,3.38,0,0,0,1.84-1.95C535.13,50.28,534.48,49.7,534,49.51Zm-5.31,3.68-6.86,0,1.32-3.08h6.42a13.68,13.68,0,0,1,4,.29c.25.14.06.7-.1,1a2.36,2.36,0,0,1-1.28,1.39A11.25,11.25,0,0,1,528.73,53.19Z"/><path d="M536.39,44.25c-.47-.68-1.56-1-3.46-1h-7.87L523,48.09h7.25a14.86,14.86,0,0,0,4.33-.4,3.33,3.33,0,0,0,1.89-2A1.53,1.53,0,0,0,536.39,44.25Zm-6.18,2.82h-5.69l1.2-2.8h7.21c2.08,0,2.51.43,2.6.55s.1.17,0,.5a2.42,2.42,0,0,1-1.3,1.42A14,14,0,0,1,530.21,47.07Z"/><path d="M541.25,41.8c-1-.59-3.12-.88-6.46-.88h-14L514,56.58H529.2a19.81,19.81,0,0,0,7-.94,6.21,6.21,0,0,0,3.47-3.41,2.49,2.49,0,0,0-1.37-3.71,5.52,5.52,0,0,0,3.61-3C542.83,43.3,542.06,42.27,541.25,41.8Zm-.3,3.29c-.71,1.64-2.37,2.59-5.07,2.89l-.31.09-.43.92.73.06c1.57.13,2.59.51,2.94,1.1a1.82,1.82,0,0,1-.1,1.67,5.15,5.15,0,0,1-2.92,2.87,18.57,18.57,0,0,1-6.59.87H515.58l5.88-13.62h13.33c3.87,0,5.37.41,6,.74C541,42.84,541.73,43.26,541,45.09Z"/><path class="cls-2" d="M475.63,29.54h-47.3v2.29c0,4.81,1,8.27,2.84,10.28s4.91,3,9.06,3c0,0,14.88,0,19.77,0h1.54c2.58,0,5.64,1.25,5.64,7.17,0,4.4-2.33,6.63-6.94,6.63h-40.6l-5,17.87h58.3c10.46,0,21.28-9.16,21.28-24.5C494.21,38,484.76,29.54,475.63,29.54Z"/><path class="cls-2" d="M451,3.86c-4.42,0-8.8,1.93-13,5.74a27.65,27.65,0,0,0-7.06,9.49h68.25l4.08-15.22Z"/><polygon class="cls-2" points="346.15 29.54 333.49 76.71 395.17 76.71 399.67 60.02 363.97 60.02 367.82 46.55 403.63 46.55 408.16 29.54 346.15 29.54"/><polygon class="cls-2" points="411.24 19.25 415.33 3.86 353.15 3.86 343.26 19.25 411.24 19.25"/><polygon class="cls-2" points="266.66 29.54 253.99 76.71 315.67 76.71 320.18 60.02 284.48 60.02 288.32 46.55 324.14 46.55 328.66 29.54 266.66 29.54"/><polygon class="cls-2" points="331.75 19.25 335.84 3.86 273.66 3.86 263.76 19.25 331.75 19.25"/><polygon class="cls-2" points="226.25 29.54 213 76.71 237.38 76.71 250.75 29.54 226.25 29.54"/><path class="cls-2" d="M166.32,29.54l-8.67,30.93-26.82,0L126,76.71h42.33c4.76,0,7.23-1.57,8.8-5.6l11.63-40.9,16.36,15.88,20.56-16.55Z"/><polygon class="cls-2" points="232.76 3.86 213.29 19.05 197.45 3.86 173.34 3.86 169.06 19.25 253.35 19.25 257.71 3.86 232.76 3.86"/><path d="M475.63,26.46H425.24v5.37c0,5.62,1.24,9.78,3.68,12.39s6.28,4,11.31,4h18c1.55,0,2.61,0,3.33-.06v.05c1,0,2.56,0,2.56,4.09,0,2.36-.6,3.55-3.86,3.55H417.3l-6.74,24h59.78c1.14,0,2,0,2.59,0v0c12,0,24.37-10.32,24.37-27.58C497.3,36.12,486.28,26.47,475.63,26.46Zm-2.7,50.3h-58.3l5-17.87h40.6c4.61,0,6.94-2.23,6.94-6.63,0-5.92-3.06-7.17-5.64-7.17H460c-4.89,0-19.8,0-19.77,0-4.15,0-7.19-1-9.06-3s-2.84-5.47-2.84-10.28V29.54h47.3c9.13,0,18.58,8.5,18.58,22.72C494.21,67.6,483.39,76.76,472.93,76.76Z"/><path d="M459.45.78c-4.9,0-7.28,0-8.48.13V.78c-5.2,0-10.28,2.2-15.07,6.54a29.74,29.74,0,0,0-8.69,12.83l-.67,2h75L507.26.78ZM430.91,19.09A27.65,27.65,0,0,1,438,9.6c4.21-3.81,8.59-5.74,13-5.74h52.26l-4.08,15.22Z"/><path d="M406,49.63l6.16-23.16H343.78L329.46,79.79h68.07l6.17-22.85H368.06l2.09-7.31ZM364,60h35.7l-4.5,16.69H333.49l12.66-47.17h62l-4.53,17H367.82Z"/><path d="M351.46.78,337.61,22.33h76L419.34.78Zm-8.2,18.47,9.89-15.39h62.18l-4.09,15.39Z"/><path d="M326.51,49.63l6.16-23.16H264.29L250,79.79H318l6.17-22.85H288.57l2.08-7.31ZM284.48,60h35.7l-4.51,16.69H254l12.67-47.17h62l-4.52,17H288.32Z"/><path d="M272,.78,258.12,22.33h76L339.85.78Zm-8.21,18.47,9.9-15.39h62.18l-4.09,15.39Z"/><path d="M164,26.47l-8.67,30.92-26.77,0L121.8,79.79h46.48c6,0,9.64-2.33,11.72-7.7L190.26,36,204.88,50.2l16-12.86L208.93,79.79h30.78l15.12-53.32Zm49,50.24,13.26-47.17h24.49L237.38,76.71Zm-87,0,4.88-16.26,26.82,0,8.67-30.93h59.31L205.07,46.09,188.71,30.21l-11.63,40.9c-1.57,4-4,5.6-8.8,5.6Z"/><path d="M231.7.78,213.5,15,198.69.78H171l-6,21.55h90.68L261.79.78ZM169.06,19.25l4.27-15.39h24.12l15.84,15.19L232.76,3.86h24.95l-4.36,15.39Z"/><polygon points="3.15 3.2 3.14 20.24 113.51 20.11 117.77 3.07 3.15 3.2"/><polygon points="3.13 28.32 3.08 76.09 99.54 75.98 111.49 28.19 3.13 28.32"/><path class="cls-2" d="M.09.14l0,23.17,114.65-.14h1.2L121.7,0Zm3.05,20.1V3.2l114.62-.13-4.26,17Z"/><path class="cls-2" d="M.06,25.26,0,79.16,100.74,79h1.2l13.48-53.92Zm3,50.83,0-47.77,108.36-.13L99.54,76Z"/></svg>